<svg width="221" height="45" xmlns="http://www.w3.org/2000/svg" xmlns:xlink="http://www.w3.org/1999/xlink">
    <defs>
        <path id="a" d="M0 0h5.27v13.399H0z"/>
        <path id="c" d="M0 34.816h220V0H0z"/>
    </defs>
    <g fill="none" fill-rule="evenodd">
        <path d="m19.9 40.609 1.545-.75-.081 2.19-.037-.044c-.184-.68-.737-1.256-1.428-1.396m7.664 1.881a4.356 4.356 0 0 0-.2-.474c-.273-.59-.454-1.026-.294-1.255a.032.032 0 0 0 .006-.01c0-.058-.23-.202-.497-.291l-.638.153-.021.003-2.853.223-1.012 1.394a.13.13 0 0 1-.105.054l-.348.045.093-2.587 2.31-1.164-2.907-2.179h-4.974l-2.341 2.34a.133.133 0 0 1-.095.04h-.713a.585.585 0 0 0-.584.583l-.003.027-.8 3.909a.132.132 0 0 1-.145.104l-1.629-.221c.047.308.202.968.703 1.088.698.168 1.753.491 1.922.544a.355.355 0 0 0 .328-.271l.01-.62c.001-.027.01-.053.025-.075l1.343-1.838-.198-1.209a.132.132 0 0 1 .101-.149l.31-.07a.135.135 0 0 1 .093.015c.027.015 2.632 1.498 3.426 1.498 1.103 0 1.228.003 1.309.085l1.838 1.698.016.019a.588.588 0 0 0 .83.122l.008-.006 3.583-2.318a.134.134 0 0 1 .071-.02h.378a.13.13 0 0 1 .097.043c.167.184.957 1.08 1.005 1.555a1.79 1.79 0 0 0 .443-.474c.1-.16.123-.264.11-.31" fill="#020202"/>
        <g transform="translate(2.77 10)">
            <mask id="b" fill="#fff">
                <use xlink:href="#a"/>
            </mask>
            <path d="M4.463.236 5.13 1.38l-.48 2.428-1.862 9.385a2.53 2.53 0 0 1-.333-.243l-.05-.036-.001-.001-.002-.002a1.818 1.818 0 0 0-.852-.301L4.463.236zM.894 12.806a1.62 1.62 0 0 1 .316-.063l.029-.006.001.003a1.688 1.688 0 0 1 1.09.28l.053.04a.054.054 0 0 1 .013.01c.003.003.188.168.485.328l.001.001L4.78 3.834l.49-2.478L4.477 0l-.11.069L3.17.817 0 12.881c.234.005.532-.012.894-.075z" fill="#020202" mask="url(#b)"/>
        </g>
        <path d="m1.097 25.024-.003.005c.195.164.941.673 2.773.814v.01c.758.055 1.55.12 1.855.146.178-.358.594-.613 1.24-.756.224-.055.43-.029.536.07a1.127 1.127 0 0 0-.897-1.37 1.985 1.985 0 0 1-.191-.018h-.006v-.002c-.771-.105-1.338-.591-1.408-.654l-.046-.033a1.414 1.414 0 0 0-.926-.234 5.117 5.117 0 0 1-1.3.14c-.425-.015-.66-.098-.72-.122l-.011-.003a1.125 1.125 0 0 0-.895 2.006M12.596 22.847a.207.207 0 1 0 0 .413.207.207 0 0 0 0-.413M14.778 32.057h-.003.003z" fill="#020202"/>
        <path d="M12.596 23.522a.47.47 0 0 1 0-.937.47.47 0 0 1 0 .937m2.049 8.24c.728.148 1.159.147 1.168.147a2.797 2.797 0 0 0 1.564-5.115l-.005-.003a1.204 1.204 0 0 0-1.684.238.932.932 0 0 0 .185 1.31.718.718 0 0 0 .536.139.716.716 0 0 0 .475-.281.548.548 0 0 0-.109-.773.416.416 0 0 0-.58.082l-.21-.157a.678.678 0 0 1 .947-.134.812.812 0 0 1 .162 1.14.976.976 0 0 1-.79.392.98.98 0 0 1-.589-.198 1.188 1.188 0 0 1-.465-.79 1.191 1.191 0 0 1 .228-.888 1.466 1.466 0 0 1 2.044-.293h.002a3.058 3.058 0 0 1-1.47 5.583 1.209 1.209 0 0 0-.553 1.013v.404l-.003-.006c.323.824.553 1.683.683 2.568h4.863c-.022-.3-.034-.604-.034-.906 0-1.385.336-2.709.704-4.03a6.7 6.7 0 0 0 .205-1.57c0-1.077-.3-2.126-.869-3.034l-.02-.034a11.626 11.626 0 0 0-11.223-4.579h-.002c-.004 0-.375.055-.653.164a.094.094 0 0 0-.048.133c.196.367.979 1.288 1.71 2.058a.13.13 0 0 1 .036.09v.286a.133.133 0 0 1-.078.12c-.176.078-.455.248-.492.362-.058.182-.015.278.005.3.002 0 .289.18.693-.155.339-.283.489-.47.534-.53l.106-.706a.131.131 0 0 1 .21-.084l.295.188c.2.129.2.129.214.142.264.292.763.712 1.197.967l.374-.925-.09-.197a.132.132 0 0 1 .12-.185c.048 0 .095.028.118.076l.114.247c.014.033.015.07.002.104l-.402.996-.166.41c.102-.015.2-.03.291-.047l.002-.005.01.004s0-.001 0 0c1.53-.282 1.666-.857 1.679-1.299a.129.129 0 0 1 .129-.125.13.13 0 0 1 .13.128v.969l-.069.034a4.29 4.29 0 0 0-1.628 1.426.668.668 0 0 1-.155.1 4.711 4.711 0 0 1-3.117 1.17h-.017l-1.94-.252a.133.133 0 0 1-.108-.094c-.007-.02-.165-.5-.963-.598-.4-.049-.641-.143-.76-.297-.11-.143-.088-.297-.074-.4a3.498 3.498 0 0 1 .141-.73c.042-.14.09-.266.138-.34a.501.501 0 0 0-.27.007c-.62.136-.99.371-1.1.699a.662.662 0 0 0-.023.086c-.095.483.34 1.008.344 1.014l-.2.169v-.001l-.307-.517-.007-.011a1.722 1.722 0 0 0-.923-.751c-.315-.025-.645-.05-.96-.072-.756-.055-1.427-.093-1.603-.08-.09.007-.151.035-.189.084-.05.066-.05.16-.046.206.787.165 2.392.54 2.975.677l-.06.254-.1-.023-.311-.073-.217-.05c-.95-.222-2.034-.468-2.5-.563-.12-.025-.2-.039-.225-.04-.108 0-.247.128-.272.206-.015.111.043.208.127.29.015.014.03.028.047.041l.024.02.052.037.026.017.052.032.075.04c.024.012.046.023.066.031.052.024.089.037.09.038l-.003.01.056-.009c.07-.01.137-.011.197-.008h.001l.052.005a.02.02 0 0 0 .006 0l.005.001 2.546.506-.051.257-2.54-.504a.739.739 0 0 0-.317.04c-.046.023-.082.056-.094.104-.07.3.208.427.307.462a.804.804 0 0 1 .31.008l2.37.505-.056.257-2.37-.507c-.092-.02-.217-.02-.253.013-.002.002-.004.004-.004.006-.005.009-.007.026-.005.048.018.155.162.242.334.334l.056.029c.017.009.034.019.048.029.962.056 2.295.617 3.22 1.063.484.234.857.436 1.005.518 1.28-.735 3.124-.581 5.34.45a11.86 11.86 0 0 0 2.627.886M12.57 18.293v.136h1.394c.269 0 .486.217.486.486v1.396h.14v-1.396c0-.268.219-.486.487-.486h1.395v-.136h-1.395a.486.486 0 0 1-.486-.486V16.41h-.14v1.396a.486.486 0 0 1-.487.486h-1.393zM12.369 15.432v1.146h.114v-1.146c0-.22.179-.399.399-.399h1.146v-.112h-1.146a.399.399 0 0 1-.399-.4v-1.145h-.114v1.145c0 .222-.18.4-.399.4h-1.146v.112h1.146c.22 0 .399.179.399.399M9.743 17.385v.723h.072v-.723c0-.139.113-.251.251-.251h.723v-.072h-.723a.251.251 0 0 1-.25-.251v-.723h-.073v.723a.251.251 0 0 1-.251.25h-.723v.073h.723c.138 0 .25.112.25.25" fill="#020202"/>
        <path d="M2.802 29.15a1.645 1.645 0 0 1 0 2.496c.694-.1 1.522-.234 1.844-.356h.001l.484-.213.323-1.162-2.593-.908-.06.142zM8.307 11.358v.002-.002z" fill="#020202"/>
        <path d="M.489 30.414c0-.488.286-.909.699-1.107.408.039.817.396 1.003.922.197.556.08 1.122-.253 1.394a1.231 1.231 0 0 1-1.449-1.209m1.375-1.42a1.428 1.428 0 1 0-.29 2.84 1.428 1.428 0 0 0 .29-2.84" fill="#020202"/>
        <g transform="translate(.292)">
            <path d="M47.151 17.547h-2.89l-.041.062c.346.555.852 1.2 1.518 1.934a13.183 13.183 0 0 0 1.413-1.996zm-3.16 7.277h3.805a12.475 12.475 0 0 1-1.934-1.351c-.679.568-1.303 1.018-1.87 1.35zm-.041 4.844h3.638v-2.266H43.95v2.266zm-3.701-6.736-.603.852c1.566-.623 2.945-1.406 4.137-2.349a17.222 17.222 0 0 1-1.226-1.601c-.291.347-.728.783-1.31 1.31-.208-.222-.659-.652-1.352-1.29h-2.1v.25c.278.278.71.76 1.3 1.445.589.686.974 1.147 1.154 1.383zm8.857-8.109 1.954.894c-.693 2.19-1.733 4.096-3.119 5.718 1.373.97 2.89 1.684 4.554 2.141-.305.291-.648.697-1.03 1.217-.38.52-.668.974-.862 1.361h-.021v6.695h-2.994v-.54H43.95v.602H41.1v-6.59a10.586 10.586 0 0 0-.79.312c-.29-.624-.714-1.282-1.268-1.975l-.416.602a50.408 50.408 0 0 0-.832-1.6v9.251h-2.91v-7.027c-.569 1.484-1.144 2.627-1.726 3.43-.18-.637-.644-1.58-1.393-2.827.596-.79 1.154-1.784 1.674-2.983.52-1.2.932-2.415 1.237-3.65h-2.391v-2.868h2.599v-4.304h2.91v4.304h2.184v1.143c1.524-1.51 2.695-3.333 3.513-5.468l2.932.832c-.125.319-.34.797-.645 1.434h2.807l.52-.104zM66.317 27.9l-2.973.645c-.055-2.48-.457-5.197-1.206-8.15l2.703-.499c.887 3.008 1.38 5.676 1.476 8.005zm6.674-11.476v2.849H61.015v-2.849h4.304v-3.43h3.119v3.43h4.553zm-3.18 12.579h3.492v2.91H60.059v-2.91h6.757c.776-2.883 1.317-5.974 1.622-9.273l3.222.478c-.513 3.202-1.13 6.134-1.85 8.795zM60.682 21.6l.374 2.828-2.308.561v4.782c0 .735-.073 1.296-.218 1.684-.146.388-.42.7-.821.936-.61.36-1.76.54-3.452.54-.083-.831-.36-1.767-.831-2.807.499.028 1.13.042 1.892.042.277 0 .416-.132.416-.395v-4.054l-2.08.499-.769-2.973c.943-.167 1.892-.347 2.849-.54V19.46h-2.329V16.61h2.329v-3.93h3.014v3.93h1.663v2.849H58.75v2.578l1.934-.437z" fill="#020202"/>
            <mask id="d" fill="#fff">
                <use xlink:href="#c"/>
            </mask>
            <path d="M85.774 17.65h3.098v-.581h-3.098v.582zm0-2.14h3.098v-.583h-3.098v.583zm.02 11.809h5.51a30.438 30.438 0 0 0-2.495-2.37l1.414-.645h-2.869c.596.721 1.026 1.345 1.29 1.871l-2.413.936c-.305-.72-.769-1.483-1.393-2.287l1.601-.52h-3.41c.333.749.576 1.476.728 2.183h2.038v.832zm-6.07-9.668h3.035v-.582h-3.035v.582zm0-2.141h3.035v-.583h-3.035v.583zm-2.1 11.809h5.094v-.603l-1.664.395c-.083-.624-.298-1.407-.644-2.35l2.37-.457h-4.886l1.684.437a9.194 9.194 0 0 1-1.954 2.578zm8.17 2.328v.645h8.276v2.37H74.61v-2.37h8.108v-.645h-5.884v-1.746l-2.287-1.435a6.688 6.688 0 0 0 2.328-2.162h-2.079v-2.037h7.963v-.5h-6.362v-1.975h6.362v-.457h-5.925v-6.092h15.094v6.092h-6.154v.457h6.923v1.976h-6.923v.499h8.108v2.037H91.72c1.137.929 1.92 1.629 2.35 2.1l-2.204 1.081v2.162h-6.071zM110.033 17.007l-2.162 1.933c-.582-.956-1.6-2.072-3.056-3.347l2.038-1.726c1.538 1.248 2.598 2.294 3.18 3.14zm-5.967 4.22 1.996-1.767c1.58 1.234 2.69 2.287 3.327 3.16l-2.12 1.975c-.624-.956-1.692-2.079-3.203-3.368zm11.643 5.967-2.39.416v5.28h-3.057v-4.719l-6.154 1.123-.478-2.952 6.632-1.186V12.661h3.056v11.955l1.913-.333.478 2.911zm-11.622-2.807L102.32 26.8c-.153-.374-.45-.963-.894-1.767v7.88h-2.994v-6.57c-.68 1.51-1.303 2.633-1.871 3.368-.263-.873-.735-1.871-1.414-2.994 1.053-1.234 2.017-2.96 2.89-5.177h-2.62v-2.87h3.015v-1.974c-.97.138-1.663.228-2.079.27-.097-.637-.367-1.428-.81-2.37 2.646-.375 4.954-.964 6.923-1.768l1.663 2.516c-.943.32-1.844.576-2.703.77v2.557h2.62v2.869h-2.62v.083c.263.222.71.665 1.341 1.33.63.666 1.07 1.144 1.32 1.435zM132.401 23.39h-4.387c.582 1.192 1.29 2.231 2.12 3.118a11.114 11.114 0 0 0 2.267-3.119zm1.913-2.911 1.996.79c-.749 2.91-2.01 5.294-3.784 7.152 1.386.86 2.924 1.476 4.615 1.85-.319.291-.669.703-1.05 1.237a13.13 13.13 0 0 0-.904 1.424c-1.968-.568-3.68-1.386-5.135-2.453-1.497.984-3.279 1.774-5.344 2.37-.43-1.095-.984-2.023-1.663-2.786 1.733-.374 3.299-.97 4.699-1.788-1.04-1.22-1.955-2.758-2.745-4.615l.978-.27h-1.352v-2.807h3.992v-2.184h-4.345v-2.827h4.345v-2.89h3.077v2.89h4.595v2.827h-4.595v2.184h2.1l.52-.104zm-10.479 1.185.354 2.827a470.6 470.6 0 0 1-2.12.54l-.001 4.575c0 .72-.073 1.275-.218 1.663-.146.388-.42.7-.822.936-.637.374-1.788.561-3.45.561-.112-.846-.396-1.781-.853-2.807.498.014 1.13.021 1.892.021.152 0 .256-.028.311-.083.056-.055.084-.16.084-.312V25.78l-1.81.437-.748-2.973c.749-.125 1.601-.291 2.558-.5V19.46h-2.287V16.61h2.287v-3.93h3.056v3.93h1.954v2.849h-1.954v2.599l1.767-.395zM144.976 26.342h7.048v-.915h-7.048v.915zm0-3.472h7.048v-.895h-7.048v.895zm12.391-4.803h-11.372l-.645 1.226h9.689V29.73c0 .749-.087 1.331-.26 1.747-.174.416-.489.741-.946.977-.43.222-.929.36-1.497.416-.568.055-1.359.083-2.37.083-.125-.97-.43-1.961-.915-2.973.61.042 1.441.062 2.495.062.319 0 .478-.124.478-.374v-.77h-7.048v3.993h-3.077v-8.774a15.352 15.352 0 0 1-2.37 2.058 14.723 14.723 0 0 0-2.08-2.39c2.01-1.303 3.688-3.21 5.032-5.718h-4.304v-2.91h5.635c.277-.777.526-1.609.748-2.496l3.223.728-.603 1.767h10.187v2.91zM176.263 23.888h-1.996c.152.54.353 1.11.603 1.705a15.444 15.444 0 0 0 1.393-1.705zm-5.76-2.64h4.055v-1.269h-4.054v1.269zm0-3.763h4.055v-1.186h-4.054v1.186zm5.843 6.403 2.37 1.622a43.97 43.97 0 0 1-2.578 2.35c.762 1.011 1.767 1.801 3.015 2.37-.333.305-.7.717-1.102 1.237-.402.52-.707.98-.915 1.382a8.876 8.876 0 0 1-3.534-3.42c-.86-1.476-1.532-3.323-2.017-5.54h-1.081v4.927c.277-.056.696-.132 1.258-.229.56-.097.98-.166 1.257-.208l.23 2.682c-2.025.485-4.305.99-6.841 1.518l-1.019-2.994a796.125 796.125 0 0 0 2.1-.312V13.659h10.146v10.23h-1.289zm-13.743-7.526v9.418h.52c.235 0 .43-.055.582-.166.222-.18.333-.54.333-1.081 0-1.248-.43-2.412-1.29-3.493a81.928 81.928 0 0 0 1.04-4.678h-1.185zm2.495-2.87 2.1 1.207c-.901 3.188-1.497 5.197-1.788 6.029a6.825 6.825 0 0 1 1.414 4.22c0 1.47-.36 2.468-1.081 2.994-.32.236-.749.403-1.29.5-.249.041-.72.062-1.413.062a7.323 7.323 0 0 0-.437-2.266v6.694h-2.869V13.617h4.927l.437-.124zM191.416 14.408l3.119-1.248c.54 1.11 1.313 2.298 2.318 3.566a30.41 30.41 0 0 0 3.066 3.357 12.8 12.8 0 0 0-1.393 1.28 13.03 13.03 0 0 0-1.226 1.444 42.195 42.195 0 0 1-5.884-8.4m.457 10.812 3.015-1.393a50.961 50.961 0 0 1 2.692 3.836c.88 1.38 1.57 2.596 2.07 3.649l-3.244 1.704c-.139-.374-.395-.921-.77-1.642-4.366.305-9.016.596-13.95.873l-.416-3.285c.18-.013.62-.03 1.32-.052.7-.02 1.258-.044 1.674-.073a42.334 42.334 0 0 0 3.451-8.337l3.743.894a64.62 64.62 0 0 1-3.597 7.298c.762-.028 1.905-.083 3.43-.166l2.661-.146c-.818-1.316-1.51-2.37-2.079-3.16m-6.466-12.121 3.576.998a27.028 27.028 0 0 1-2.547 4.813c-1.032 1.56-2.089 2.845-3.17 3.857-.333-.333-.81-.739-1.435-1.217a19.33 19.33 0 0 0-1.58-1.112c1.067-.818 2.062-1.888 2.984-3.212a18.3 18.3 0 0 0 2.172-4.127M206.34 26.654h4.533V24.47h-4.533v2.184zm7.568 2.64h-7.568v1.538h-3.035V21.83h10.603v7.464zm-11.56-8.65h12.475v-2.681H202.35v2.682zM220 13.93v15.282c0 .86-.094 1.528-.28 2.006-.188.478-.524.849-1.01 1.112-.748.416-2.175.61-4.282.582-.097-1.053-.423-2.162-.977-3.326 1.08.083 2.023.104 2.827.062.347 0 .52-.166.52-.499V16.861H202.12v-2.932H220zM32.598 41.62v-2.712c0-1.467.818-2.255 2.214-2.255 1.347 0 2.085.788 2.135 2.255h-1.416c-.03-.629-.23-.888-.719-.888-.478 0-.738.259-.738.888v2.713c0 .628.25.888.748.888.52 0 .768-.26.768-.888v-.499h-.838v-1.257h2.235v1.756c-.04 1.466-.818 2.254-2.185 2.254-1.386 0-2.204-.788-2.204-2.254M40.948 38.459v1.296c-.19-.09-.39-.14-.639-.14-.568 0-.918.32-.918 1.018v3.123h-1.356v-5.288h.898l.11.61c.279-.48.738-.74 1.326-.74.24 0 .44.04.579.12M43.96 41.67h-.458c-.41 0-.669.19-.669.57 0 .259.14.498.519.498.37 0 .609-.24.609-.648v-.42zm1.367-1.276v3.362H44.25l-.08-.5c-.19.36-.549.64-1.147.64-.978 0-1.576-.7-1.576-1.657 0-1.127.848-1.656 2.025-1.656h.489v-.19c0-.468-.1-.747-.47-.747-.239 0-.478.12-.528.469h-1.367c.05-1.118.758-1.776 1.916-1.776 1.267 0 1.815.708 1.815 2.055zM52.64 40.514v3.242h-1.347v-3.242c0-.649-.17-.878-.49-.878-.338 0-.548.26-.548.778v3.342H48.91v-3.242c0-.649-.17-.878-.49-.878-.328 0-.548.26-.548.778v3.342h-1.347v-5.287h.888l.09.538c.27-.439.688-.668 1.237-.668.519 0 .918.21 1.177.628.26-.409.679-.628 1.207-.628.958 0 1.517.738 1.517 2.175M62.197 43.167v.589h-3.173v-6.983h.619v6.394zM64.66 43.247v.559h-.298c-.958 0-1.487-.6-1.487-1.607v-3.132h-.798v-.549h.798v-1.207h.589v1.207h1.077v.55h-1.077v3.131c0 .689.279 1.048.898 1.048h.299zM68.452 41.89v-1.526c0-.838-.43-1.417-1.088-1.417-.768 0-1.157.42-1.157 1.417v1.506c0 1.028.43 1.457 1.157 1.457.599 0 1.088-.46 1.088-1.437zm.578-5.357v7.223h-.479l-.08-.49c-.279.39-.728.61-1.236.61-.948 0-1.626-.679-1.626-2.006v-1.506c0-1.297.618-1.965 1.626-1.965.469 0 .927.19 1.217.588v-2.454h.578zM70.327 43.387c0-.28.19-.47.47-.47.278 0 .468.19.468.47 0 .279-.19.468-.469.468a.445.445 0 0 1-.469-.468" fill="#020202" mask="url(#d)"/>
        </g>
    </g>
</svg>
