<svg width="90" height="90" xmlns="http://www.w3.org/2000/svg">
    <g fill-rule="nonzero" fill="none">
        <path d="M50.697 48.66c.647 0 1.172-.525 1.172-1.172V46.47a1.172 1.172 0 1 0-2.344 0v1.02c0 .646.525 1.171 1.172 1.171zM39.66 48.66c.647 0 1.172-.525 1.172-1.172V46.47a1.172 1.172 0 0 0-2.344 0v1.02c0 .646.525 1.171 1.172 1.171zM45.178 54.89h.004a3.698 3.698 0 0 0 2.634-1.096 1.172 1.172 0 0 0-1.661-1.654 1.37 1.37 0 0 1-.976.406h-.001c-.37 0-.72-.145-.982-.407a1.172 1.172 0 0 0-1.658 1.657 3.709 3.709 0 0 0 2.64 1.094z" fill="#333"/>
        <path d="m83.758 39.993-7.884-7.364V14.667h.387a2.7 2.7 0 0 0 2.7-2.696V8.07a2.7 2.7 0 0 0-2.7-2.695H63.567a2.7 2.7 0 0 0-2.7 2.695v3.902a2.7 2.7 0 0 0 2.7 2.696h.388v6.828L48.1 6.685c-2.406-2.247-3.797-2.247-6.197 0L22.734 24.585a1.172 1.172 0 1 0 1.6 1.712l19.17-17.899C43.78 8.138 44.624 7.35 45 7.35c.376 0 1.222.79 1.5 1.05L82.16 41.705c.277.259.068.681-.348.677h-5.97c-.648 0-1.173.525-1.173 1.172v37.9c0 .654-.552 1.207-1.206 1.207h-4.794V73.38c0-5.494-2.538-9.555-6.789-10.864l-1.143-.353V60a2.898 2.898 0 0 0-2.895-2.895h-2.5c1.376-1.567 2.44-3.316 3.098-5.065 2.666-.154 5.25-1.726 5.25-4.574v-1.143a3.23 3.23 0 0 0-3.23-3.222h-1.114c.575-5.186.403-10.487-4.59-14.732-3.013-2.56-8.411-3.79-12.836-2.925-2.361.462-4.164 1.494-5.15 2.934-2.387.536-4.251 1.783-5.413 3.628-1.169 1.858-1.599 4.286-1.242 7.024l.531 4.07H29.54a3.23 3.23 0 0 0-3.232 3.223v1.143c0 2.846 2.581 4.418 5.254 4.573.658 1.75 1.72 3.499 3.095 5.067h-2.495a2.9 2.9 0 0 0-2.9 2.895v2.164l-1.144.352c-4.25 1.31-6.788 5.372-6.788 10.864v9.28h-4.794a1.206 1.206 0 0 1-1.202-1.206v-37.9c0-.647-.525-1.172-1.172-1.172H8.174c-.406.006-.612-.418-.334-.678l12.313-11.498a1.172 1.172 0 1 0-1.6-1.713L6.241 39.992c-1.488 1.39-1.321 2.567-1.09 3.145.407 1.013 1.543 1.606 3.036 1.59h4.803v36.728c0 1.957 1.59 3.55 3.546 3.55h56.926a3.554 3.554 0 0 0 3.55-3.55V44.727h4.784c1.503.023 2.646-.577 3.053-1.592.232-.578.398-1.755-1.091-3.142zm-20.19-27.67a.359.359 0 0 1-.357-.352V8.07c0-.19.163-.352.356-.352h12.694c.193 0 .356.161.356.352v3.902c0 .19-.163.352-.356.352H63.567zm9.962 18.116-7.232-6.755v-9.017h7.232v15.772zM59.194 48.22v-2.774h1.264c.49 0 .888.394.888.878v1.143c0 1.235-1.139 1.881-2.26 2.126.069-.465.108-.924.108-1.373zm-30.542-.753v-1.143c0-.484.398-.878.888-.878h1.268v2.774c0 .449.04.908.108 1.372-1.126-.244-2.264-.89-2.264-2.125zm.61 29.55a2.005 2.005 0 0 0-1.886 1.998v2.26c0 .49.096.958.269 1.388h-3.971V73.38c0-2.117.5-7.196 5.134-8.624l.455-.14v12.399zm3.89-28.797v-3.267a17.98 17.98 0 0 1 1.073-.418c1.719-.628 4.168-1.523 5.218-3.884 2.43 1.12 5.296.975 8.081.834 4.039-.204 7.539-.378 9.326 3.068v3.667c0 .73-.128 1.507-.367 2.3a1.313 1.313 0 0 0-.009.027c-.693 2.278-2.302 4.693-4.445 6.56h-14.06c-2.895-2.523-4.817-6.049-4.817-8.887zm27.127 33.054a1.39 1.39 0 0 1-1.389 1.388H31.112a1.392 1.392 0 0 1-1.392-1.388v-1.92h13.098a1.172 1.172 0 1 0 0-2.343H31.606V60a.56.56 0 0 1 .556-.55H57.84c.298 0 .55.252.55.55v17.01H47.708a1.172 1.172 0 1 0 0 2.344H60.28v1.92zm6.045 1.388h-3.97a3.71 3.71 0 0 0 .268-1.388v-2.259a2.005 2.005 0 0 0-1.886-1.998v-12.4l.454.14c4.634 1.428 5.134 6.507 5.134 8.624v9.281z" fill="#333"/>
        <path d="M38.562 29.933c.564-1.042 1.913-1.818 3.807-2.188a13.117 13.117 0 0 1 2.506-.232c3.127 0 6.422.993 8.362 2.642 3.648 3.1 4.207 6.92 3.934 10.988-2.63-2.36-6.374-2.17-9.765-2-3.046.154-5.923.3-7.928-1.179-1.603-1.466-1.74-6.027-.916-8.031zM32.438 38.727c-.3-2.298-.164-6.057 3.433-7.612-.377 2.583-.098 6.107 1.588 8.121-.461 1.66-1.983 2.346-4.038 3.097-.168.061-.33.12-.489.18l-.494-3.786z" stroke="#F0BC5E" stroke-width="6" fill="#F0BC5E"/>
        <path d="M48.565 68.49c0-.647-.525-1.171-1.172-1.171h-4.788a1.172 1.172 0 1 0 0 2.344h4.788c.647 0 1.172-.525 1.172-1.172z" fill="#333"/>
    </g>
</svg>
