<svg width="90" height="90" xmlns="http://www.w3.org/2000/svg">
    <defs>
        <filter x="-25.6%" y="-25.6%" width="151.1%" height="151.1%" filterUnits="objectBoundingBox" id="a">
            <feOffset dy="6" in="SourceAlpha" result="shadowOffsetOuter1"/>
            <feGaussianBlur stdDeviation="3" in="shadowOffsetOuter1" result="shadowBlurOuter1"/>
            <feColorMatrix values="0 0 0 0 1 0 0 0 0 0.840930293 0 0 0 0 0.194045351 0 0 0 0.2 0" in="shadowBlurOuter1" result="shadowMatrixOuter1"/>
            <feMerge>
                <feMergeNode in="shadowMatrixOuter1"/>
                <feMergeNode in="SourceGraphic"/>
            </feMerge>
        </filter>
    </defs>
    <g filter="url(#a)" fill-rule="nonzero" fill="none">
        <path d="M85 49.298a6.674 6.674 0 0 0-6.667-6.667H73V29.298c0-.736-.597-1.333-1.333-1.333h-8c-.736 0-1.333.597-1.333 1.333V42.63h-12v-16c0-.736-.597-1.333-1.334-1.333h-8c-.736 0-1.333.597-1.333 1.333v16h-12V29.298c0-.736-.597-1.333-1.333-1.333h-8c-.736 0-1.333.597-1.333 1.333V42.63h-5.333A6.674 6.674 0 0 0 5 49.298v12a7.734 7.734 0 0 0 4 6.895v14.438H6.334a1.333 1.333 0 0 0 0 2.666h77.333a1.333 1.333 0 0 0 0-2.666H81V68.213a8.024 8.024 0 0 0 4-6.916v-12zM65 30.63h5.334v12H65v-12zm-22.666-2.666h5.333V42.63h-5.333V27.965zM19.667 30.63h5.334v12h-5.334v-12zm-8 52V69.187c.134.022.267.028.401.043l.102.011a8.028 8.028 0 0 0 3.454-.4c.338-.12.67-.261.989-.424.068-.033.133-.07.204-.107.259-.14.51-.295.752-.462.078-.053.156-.103.232-.159a7.776 7.776 0 0 0 3.2-6.392v-5.333a2.647 2.647 0 0 1 1.22-2.236c.028-.017.058-.03.086-.045.131-.08.268-.148.41-.204.042-.016.084-.026.126-.039.13-.044.263-.077.4-.1.063-.01.133-.013.195-.02.112-.01.225-.015.337-.012.084.004.168.012.251.025.1.012.2.03.298.055.033.008.063.02.095.03a2.913 2.913 0 0 1 1.915 2.771v7.775a8 8 0 0 0 16 0v-8c0-.905.46-1.748 1.222-2.237.023-.015.05-.024.073-.039.135-.082.277-.153.425-.21.038-.015.076-.024.113-.035.131-.045.264-.08.4-.104.064-.01.134-.013.193-.02.112-.01.225-.014.338-.011.084.004.167.012.25.025.101.012.2.03.298.055.034.008.064.02.096.03a2.913 2.913 0 0 1 1.925 2.771v2.442a8 8 0 0 0 16 0v-2.667a2.647 2.647 0 0 1 1.22-2.236c.028-.017.059-.03.088-.047.13-.079.267-.146.408-.202.042-.016.085-.026.134-.039.128-.044.26-.077.393-.1.064-.01.133-.013.196-.02.112-.01.224-.015.337-.012.084.004.168.012.25.025.1.012.2.03.298.055.033.008.064.02.096.03A2.913 2.913 0 0 1 69 56.188v5.108a8.008 8.008 0 0 0 2.343 5.668c.265.258.546.498.844.718.087.062.176.118.267.178a8.14 8.14 0 0 0 .967.57c.27.134.545.252.826.355.056.02.11.046.168.065.732.25 1.495.393 2.267.426h.009c.372.015.744.004 1.114-.033l.134-.015c.133-.014.267-.02.4-.042V82.63H11.668z" fill="#333"/>
        <path d="M7.668 49.298a4 4 0 0 1 4-4h66.665a4 4 0 0 1 4 4v12a5.365 5.365 0 0 1-3.19 4.893 5.454 5.454 0 0 1-5.914-1.111 5.355 5.355 0 0 1-1.562-3.783v-5.333a5.32 5.32 0 0 0-2.952-4.746l-.081-.045a5.095 5.095 0 0 0-.66-.257c-.132-.044-.254-.088-.386-.12a5.14 5.14 0 0 0-.517-.09c-.117-.018-.229-.053-.348-.062-.064 0-.125.01-.188.006-.063-.002-.132-.02-.201-.02-.148 0-.29.032-.437.043-.147.013-.303.02-.453.045-.23.042-.458.101-.68.174-.121.037-.244.064-.36.11a5.11 5.11 0 0 0-.72.36c-.083.048-.173.082-.255.133A5.298 5.298 0 0 0 61 55.965v2.666a5.333 5.333 0 1 1-10.667 0v-2.667a5.32 5.32 0 0 0-2.952-4.746l-.081-.045a5.095 5.095 0 0 0-.66-.257c-.132-.044-.254-.088-.386-.12a5.14 5.14 0 0 0-.517-.09c-.117-.018-.23-.053-.348-.062-.064 0-.125.01-.188.006-.063-.002-.132-.02-.202-.02-.147 0-.29.032-.436.043-.147.013-.303.02-.453.045-.23.042-.457.101-.68.174-.121.037-.244.064-.36.11-.248.1-.488.22-.717.358-.085.048-.176.084-.258.134a5.299 5.299 0 0 0-2.428 4.47v8a5.333 5.333 0 1 1-10.667 0v-8a5.32 5.32 0 0 0-2.952-4.746l-.081-.045a5.095 5.095 0 0 0-.66-.257c-.132-.044-.254-.088-.386-.12a5.14 5.14 0 0 0-.517-.09c-.117-.018-.23-.053-.348-.062a5.333 5.333 0 0 0-5.723 5.32v5.333a5.342 5.342 0 0 1-1.55 3.772 5.502 5.502 0 0 1-5.916 1.124A5.488 5.488 0 0 1 9.23 65.08a5.357 5.357 0 0 1-1.561-3.783v-12z" fill="#F0BC5E"/>
        <path d="M45 22.631a6.674 6.674 0 0 0 6.667-6.666c0-3.2-4.639-10.079-5.569-11.425a1.385 1.385 0 0 0-2.194 0c-.931 1.346-5.57 8.224-5.57 11.425A6.675 6.675 0 0 0 45 22.63zm0-14.923c1.92 2.999 4 6.8 4 8.257a4 4 0 1 1-8 0c0-1.457 2.082-5.258 4-8.257zM67.667 25.298a6.674 6.674 0 0 0 6.666-6.667c0-3.2-4.638-10.078-5.568-11.424a1.385 1.385 0 0 0-2.195 0C65.639 8.553 61 15.431 61 18.631a6.675 6.675 0 0 0 6.667 6.667zm0-14.923c1.918 2.999 4 6.8 4 8.256a4 4 0 1 1-8 0c0-1.456 2.081-5.257 4-8.256zM22.334 25.298a6.674 6.674 0 0 0 6.667-6.667c0-3.2-4.639-10.078-5.57-11.424a1.385 1.385 0 0 0-2.194 0c-.93 1.346-5.57 8.224-5.57 11.424a6.675 6.675 0 0 0 6.667 6.667zm0-14.923c1.919 2.999 4 6.8 4 8.256a4 4 0 1 1-8 0c0-1.456 2.082-5.257 4-8.256z" fill="#333"/>
    </g>
</svg>
