<svg width="90" height="90" xmlns="http://www.w3.org/2000/svg">
    <defs>
        <filter x="-25.6%" y="-25.6%" width="151.1%" height="151.1%" filterUnits="objectBoundingBox" id="a">
            <feOffset dy="6" in="SourceAlpha" result="shadowOffsetOuter1"/>
            <feGaussianBlur stdDeviation="3" in="shadowOffsetOuter1" result="shadowBlurOuter1"/>
            <feColorMatrix values="0 0 0 0 1 0 0 0 0 0.840930293 0 0 0 0 0.194045351 0 0 0 0.2 0" in="shadowBlurOuter1" result="shadowMatrixOuter1"/>
            <feMerge>
                <feMergeNode in="shadowMatrixOuter1"/>
                <feMergeNode in="SourceGraphic"/>
            </feMerge>
        </filter>
    </defs>
    <g filter="url(#a)" fill-rule="nonzero" fill="none">
        <path d="m61.65 31.963-.855-2.818a6.12 6.12 0 0 0-11.59 0l-.856 2.818a15.825 15.825 0 0 0-.441 7.333 6.897 6.897 0 0 0 3.552 4.807l-.959 21.43a4.222 4.222 0 0 0 1.067 3.283 4.657 4.657 0 0 0 6.875 0 4.166 4.166 0 0 0 1.066-3.193L58.545 44.1a6.896 6.896 0 0 0 3.547-4.804c.43-2.445.279-4.957-.441-7.333zm-2.185 6.869a4.228 4.228 0 0 1-2.766 3.185c-.54.203-.889.731-.863 1.308l1.013 22.508c.047.442-.099.882-.4 1.208a2.06 2.06 0 0 1-2.898 0 1.6 1.6 0 0 1-.392-1.296l1.005-22.42a1.333 1.333 0 0 0-.863-1.308 4.228 4.228 0 0 1-2.766-3.185 13.148 13.148 0 0 1 .366-6.088l.856-2.819a3.457 3.457 0 0 1 6.486 0l.856 2.819c.597 1.973.722 4.058.366 6.088z" fill="#F0BC5E"/>
        <path d="M41 25c-.736 0-1.333.597-1.333 1.333v11.448l-3.61 3.61a1.333 1.333 0 0 0-.39 1.009l1.166 23.333c.028.504-.154.996-.504 1.359a1.877 1.877 0 0 1-2.655.012l-.011-.012a1.816 1.816 0 0 1-.504-1.359L34.333 42.4a1.334 1.334 0 0 0-.389-1.01l-3.61-3.609V26.333a1.333 1.333 0 0 0-2.667 0v12c0 .354.14.693.39.943l3.582 3.583L30.5 65.604a4.504 4.504 0 1 0 8.998 0L38.36 42.86l3.582-3.583c.25-.25.39-.589.39-.943v-12c0-.736-.597-1.333-1.333-1.333z" fill="#333"/>
        <path d="M33 25c-.736 0-1.333.597-1.333 1.333V37a1.333 1.333 0 0 0 2.666 0V26.333c0-.736-.597-1.333-1.333-1.333zM37 25c-.736 0-1.333.597-1.333 1.333V37a1.333 1.333 0 0 0 2.666 0V26.333c0-.736-.597-1.333-1.333-1.333z" fill="#333"/>
        <path d="M45 5C22.909 5 5 22.909 5 45s17.909 40 40 40 40-17.909 40-40C84.975 22.919 67.081 5.025 45 5zm0 77.333C24.381 82.333 7.667 65.62 7.667 45S24.38 7.667 45 7.667 82.333 24.38 82.333 45C82.31 65.609 65.61 82.31 45 82.333z" fill="#333"/>
        <path d="M49.328 70.029a1.333 1.333 0 0 0-1.508-1.192l.005-.001a24.493 24.493 0 0 1-5.65 0 1.334 1.334 0 1 0-.311 2.65c2.082.242 4.185.242 6.267 0a1.333 1.333 0 0 0 1.197-1.457zM65.4 27.819a1.333 1.333 0 0 0-1.878-.165l-.006.005a1.333 1.333 0 0 0-.16 1.878c8.04 9.544 7.424 23.655-1.415 32.463a1.334 1.334 0 0 0 1.883 1.89c9.823-9.786 10.508-25.467 1.576-36.071z" fill="#333"/>
        <g fill="#000">
            <path d="M36.065 22.624h-.006.006zM51.29 19.079a26.903 26.903 0 0 0-15.695.964 1.333 1.333 0 0 0 .468 2.58c.16 0 .317-.03.466-.086a24.222 24.222 0 0 1 14.134-.866 1.333 1.333 0 1 0 .626-2.592z"/>
        </g>
        <path d="M27.999 61.933A23.846 23.846 0 0 1 21 45a23.823 23.823 0 0 1 4.588-14.117 1.333 1.333 0 1 0-2.155-1.571c-7.708 10.598-6.574 25.226 2.676 34.51A1.336 1.336 0 0 0 28 61.932z" fill="#333"/>
    </g>
</svg>
