<svg width="90" height="90" xmlns="http://www.w3.org/2000/svg">
    <defs>
        <filter x="-25.6%" y="-25.6%" width="151.1%" height="151.1%" filterUnits="objectBoundingBox" id="a">
            <feOffset dy="6" in="SourceAlpha" result="shadowOffsetOuter1"/>
            <feGaussianBlur stdDeviation="3" in="shadowOffsetOuter1" result="shadowBlurOuter1"/>
            <feColorMatrix values="0 0 0 0 1 0 0 0 0 0.840930293 0 0 0 0 0.194045351 0 0 0 0.2 0" in="shadowBlurOuter1" result="shadowMatrixOuter1"/>
            <feMerge>
                <feMergeNode in="shadowMatrixOuter1"/>
                <feMergeNode in="SourceGraphic"/>
            </feMerge>
        </filter>
    </defs>
    <g filter="url(#a)" fill-rule="nonzero" fill="none">
        <path d="M81.152 46h-2.605a15.635 15.635 0 0 0-6.45-12.48V26a4.52 4.52 0 0 0-4.517-4.516c-5.341 0-9.864 3.88-10.784 9.032h-4.054v2.581h6.401l.08-1.205c.29-4.389 3.962-7.827 8.358-7.827 1.067 0 1.935.868 1.935 1.935v8.888l.578.382a13.071 13.071 0 0 1 5.874 10.917v2.394h5.184c.7 0 1.268.568 1.268 1.267v12.95c0 .7-.568 1.267-1.268 1.267h-5.45l-.272.926a13.02 13.02 0 0 1-8.858 8.858l-.927.273v6.064c0 .36-.293.653-.653.653H52.104a.654.654 0 0 1-.653-.653v-5.799H38.548v5.799c0 .36-.293.653-.653.653H25.008a.654.654 0 0 1-.653-.653v-6.921l-.693-.363a13.055 13.055 0 0 1-7.05-11.605v-15.11a13.046 13.046 0 0 1 10.885-12.904l-.433-2.546a15.622 15.622 0 0 0-13.032 15.45v3.684h-1.528c.145-.405.238-.836.238-1.29A3.876 3.876 0 0 0 8.87 44.71c-.454 0-.885.093-1.29.237V40.84H5v7.742a3.876 3.876 0 0 0 3.871 3.871h5.161v8.845c0 5.59 2.947 10.696 7.742 13.508v5.38a3.237 3.237 0 0 0 3.234 3.235h12.888a3.237 3.237 0 0 0 3.233-3.234v-3.218h7.742v3.218a3.237 3.237 0 0 0 3.233 3.234h12.888a3.237 3.237 0 0 0 3.234-3.234v-4.165c4.377-1.583 7.793-5 9.377-9.377h3.55A3.85 3.85 0 0 0 85 62.797v-12.95A3.853 3.853 0 0 0 81.152 46zM7.581 48.58c0-.71.58-1.29 1.29-1.29.71 0 1.29.58 1.29 1.29 0 .712-.58 1.291-1.29 1.291-.71 0-1.29-.58-1.29-1.29z" fill="#333"/>
        <path d="M39.839 39.549c-9.25 0-16.775-7.526-16.775-16.775C23.064 13.525 30.59 6 39.84 6c9.249 0 16.774 7.525 16.774 16.774 0 9.25-7.525 16.775-16.774 16.775z" fill="#F9BA48"/>
        <path fill="#333" d="M29.516 38.258h20.645v2.581H29.516zM47.58 20.193v-1.935a5.814 5.814 0 0 0-5.806-5.807h-.645v-2.58h-2.581v2.58h-.645a5.814 5.814 0 0 0-5.807 5.807 5.814 5.814 0 0 0 5.807 5.806h3.87A3.23 3.23 0 0 1 45 27.29a3.23 3.23 0 0 1-3.225 3.226h-3.871a3.23 3.23 0 0 1-3.226-3.226v-1.935h-2.58v1.935a5.814 5.814 0 0 0 5.806 5.807h.645v2.58h2.58v-2.58h.646a5.814 5.814 0 0 0 5.806-5.807 5.814 5.814 0 0 0-5.806-5.806h-3.871a3.23 3.23 0 0 1-3.226-3.226 3.23 3.23 0 0 1 3.226-3.226h3.871A3.23 3.23 0 0 1 45 18.258v1.935h2.58zM58.99 44.116c.012-.02 1.305-1.987 4.074-1.987 2.718 0 4.028 1.915 4.075 1.987a1.29 1.29 0 0 0 1.783.39c.6-.385.775-1.183.39-1.783-.084-.13-2.085-3.175-6.248-3.175-4.162 0-6.163 3.044-6.247 3.175a1.291 1.291 0 0 0 2.173 1.393z"/>
    </g>
</svg>
