<svg width="90" height="90" xmlns="http://www.w3.org/2000/svg">
    <g fill-rule="nonzero" fill="none">
        <path d="M49.896 6.87C30.979 9.277 16.354 25.43 16.354 45c0 19.57 14.625 35.724 33.542 38.128C68.812 80.723 83.437 64.57 83.437 45c0-19.57-14.625-35.723-33.541-38.128z" fill="#F0BC5E"/>
        <path d="M76.25 45c0 17.258-13.991 31.25-31.25 31.25S13.75 62.257 13.75 45c0-17.259 13.991-31.25 31.25-31.25S76.25 27.74 76.25 45z" fill="#FFF"/>
        <path d="M49.208 45a4.209 4.209 0 1 1-8.417 0 4.209 4.209 0 0 1 8.417 0z" fill="#F0BC5E"/>
        <path d="M12.188 45c0 18.093 14.72 32.812 32.812 32.812 18.093 0 32.813-14.72 32.813-32.813 0-18.092-14.72-32.812-32.813-32.812-18.093 0-32.813 14.72-32.813 32.812zm62.5 0c0 16.37-13.318 29.687-29.688 29.687-16.37 0-29.688-13.317-29.688-29.688 0-16.37 13.318-29.687 29.688-29.687 16.37 0 29.688 13.318 29.688 29.687z" fill="#333"/>
        <path d="M75.903 19.601c-5.785-7.032-13.855-11.92-22.72-13.764a1.563 1.563 0 1 0-.636 3.06C69.54 12.43 81.874 27.614 81.874 45c0 20.334-16.542 36.875-36.875 36.875S8.125 65.333 8.125 45c0-17.856 12.733-33.117 30.276-36.286a1.563 1.563 0 0 0-.556-3.075C28.74 7.283 20.42 12.104 14.418 19.215A40.027 40.027 0 0 0 5 45c0 10.685 4.16 20.73 11.716 28.285C24.27 80.84 34.316 85 45 85c10.684 0 20.73-4.16 28.284-11.715C80.84 65.73 85 55.684 85 45c0-9.248-3.23-18.268-9.097-25.398z" fill="#333"/>
        <path d="M45.19 8.125h.123a1.563 1.563 0 0 0 .013-3.124L45.216 5h-.013a1.563 1.563 0 0 0-.013 3.125zM43.458 19.948c0 .41.167.812.457 1.105.293.29.694.458 1.105.458.413 0 .814-.168 1.105-.458.292-.293.46-.694.46-1.105a1.568 1.568 0 0 0-1.565-1.562c-.41 0-.813.165-1.105.457-.29.29-.457.693-.457 1.105zM44.98 68.489a1.567 1.567 0 0 0-1.563 1.563 1.564 1.564 0 0 0 2.667 1.104c.291-.29.458-.694.458-1.105 0-.41-.167-.812-.458-1.104a1.574 1.574 0 0 0-1.104-.458zM70.051 46.583c.412 0 .814-.166 1.105-.457a1.566 1.566 0 0 0 0-2.21 1.57 1.57 0 0 0-1.105-.457c-.41 0-.813.166-1.104.456a1.574 1.574 0 0 0-.458 1.105c0 .41.167.814.458 1.106.292.29.694.457 1.104.457zM19.949 43.417a1.57 1.57 0 0 0-1.105.456 1.567 1.567 0 0 0 0 2.211c.29.29.692.458 1.105.458.41 0 .813-.167 1.104-.458.29-.29.458-.694.458-1.105 0-.412-.167-.815-.458-1.106a1.57 1.57 0 0 0-1.104-.456zM32.492 21.731c-.41 0-.814.167-1.105.458-.29.29-.457.694-.457 1.104 0 .411.167.815.457 1.105.29.29.694.458 1.105.458.41 0 .814-.167 1.105-.458.29-.29.458-.694.458-1.105 0-.41-.168-.814-.458-1.104a1.575 1.575 0 0 0-1.105-.458zM57.508 65.143c-.41 0-.814.168-1.105.458-.29.29-.458.694-.458 1.105 0 .41.168.814.458 1.105.29.29.694.457 1.105.457.41 0 .814-.167 1.105-.457.29-.29.457-.694.457-1.105 0-.411-.167-.814-.457-1.105a1.575 1.575 0 0 0-1.105-.458zM66.707 34.055c.41 0 .813-.168 1.104-.459.29-.29.458-.693.458-1.104 0-.411-.167-.814-.458-1.105a1.574 1.574 0 0 0-1.104-.457c-.412 0-.815.166-1.105.457-.29.29-.458.694-.458 1.105 0 .41.167.814.458 1.104.29.291.693.459 1.105.459zM23.293 55.945c-.41 0-.813.167-1.104.458-.29.29-.458.694-.458 1.104 0 .411.167.815.458 1.105.29.29.694.458 1.104.458.412 0 .815-.167 1.105-.458.29-.29.458-.694.458-1.105 0-.41-.167-.814-.458-1.104a1.572 1.572 0 0 0-1.105-.458zM23.314 30.894c-.411 0-.814.166-1.105.457-.29.29-.457.692-.457 1.105 0 .41.166.812.457 1.104.293.29.694.459 1.105.459a1.567 1.567 0 0 0 1.563-1.563 1.565 1.565 0 0 0-1.563-1.562zM66.686 59.106c.411 0 .814-.167 1.105-.458.29-.29.457-.694.457-1.105 0-.41-.167-.814-.457-1.104a1.574 1.574 0 0 0-1.105-.458c-.413 0-.814.167-1.105.458a1.57 1.57 0 0 0-.458 1.104c0 .411.166.815.458 1.105.29.29.692.458 1.105.458zM57.543 24.876c.412 0 .815-.166 1.105-.456a1.567 1.567 0 0 0-1.105-2.668c-.41 0-.813.166-1.104.457-.29.29-.458.694-.458 1.105 0 .41.167.814.458 1.106.29.29.694.456 1.104.456zM32.456 65.123a1.565 1.565 0 0 0-1.562 1.563c0 .41.167.813.457 1.104.291.291.693.458 1.105.458.411 0 .814-.167 1.105-.458.29-.292.458-.693.458-1.104a1.566 1.566 0 0 0-1.563-1.563zM57.863 29.946l-10.029 10.03A5.732 5.732 0 0 0 45 39.229c-1.025 0-1.987.27-2.822.74l-4.794-4.795a1.564 1.564 0 0 0-2.21 2.21l4.794 4.794a5.736 5.736 0 0 0-.739 2.821A5.778 5.778 0 0 0 45 50.771c3.182 0 5.77-2.59 5.77-5.772 0-1.019-.266-1.977-.732-2.808l10.035-10.035a1.564 1.564 0 0 0-2.21-2.21zM45 47.646a2.649 2.649 0 0 1-2.646-2.647A2.649 2.649 0 0 1 45 42.354a2.649 2.649 0 0 1 2.646 2.645A2.649 2.649 0 0 1 45 47.646zM51.808 58.124H38.231a1.563 1.563 0 0 0 0 3.125h13.577a1.562 1.562 0 1 0 0-3.125z" fill="#333"/>
    </g>
</svg>
