<svg width="90" height="90" xmlns="http://www.w3.org/2000/svg">
    <defs>
        <filter x="-25.6%" y="-25.6%" width="151.1%" height="151.1%" filterUnits="objectBoundingBox" id="a">
            <feOffset dy="6" in="SourceAlpha" result="shadowOffsetOuter1"/>
            <feGaussianBlur stdDeviation="3" in="shadowOffsetOuter1" result="shadowBlurOuter1"/>
            <feColorMatrix values="0 0 0 0 1 0 0 0 0 0.840930293 0 0 0 0 0.194045351 0 0 0 0.2 0" in="shadowBlurOuter1" result="shadowMatrixOuter1"/>
            <feMerge>
                <feMergeNode in="shadowMatrixOuter1"/>
                <feMergeNode in="SourceGraphic"/>
            </feMerge>
        </filter>
    </defs>
    <g filter="url(#a)" fill-rule="nonzero" fill="none">
        <path d="M8.585 27.788 10 31.33a3.862 3.862 0 0 1 2.742-1.14h1.29v-3.87h1.513a8.806 8.806 0 0 0 6.23-2.58l1.29 3.87a7.235 7.235 0 0 0 6.018-3.22l.433-.65a4.668 4.668 0 0 0 4.176 2.58h.985v3.87h1.29c1.058 0 2.012.426 2.71 1.112l1.326-3.976a21.864 21.864 0 0 0 1.126-6.938c0-6.69-5.443-12.132-12.133-12.132-.569 0-1.146.04-1.716.122l-2.849.408a9.71 9.71 0 0 1-8.196-2.732L15.183 5l-3.95 5.266a5.395 5.395 0 0 0-1.072 3.215c0 .294.025.586.073.875a14.113 14.113 0 0 0-2.653 8.216c0 1.794.338 3.55 1.004 5.216zM51.977 53.041c1.658-1.46 3.685-2.531 5.977-2.99l2.53-.506v-3.871c-2.98-1.49-4.902-4.45-5.119-7.742h-1.333a3.87 3.87 0 1 1 0-7.742h1.29v-2.581a11.572 11.572 0 0 0 6.617-4.51l1.642 2.187a2.579 2.579 0 0 0 2.064 1.033h10.323v3.87h1.29a3.87 3.87 0 1 1 0 7.743h-1.334c-.217 3.293-2.14 6.253-5.119 7.742v3.87l2.53.506a12.856 12.856 0 0 1 5.993 2.97l.009-.012a14.556 14.556 0 0 0 3.082-8.937V25.028c0-9.249-7.525-16.774-16.774-16.774S48.871 15.78 48.871 25.028v19.043a14.57 14.57 0 0 0 3.081 8.938l.025.032z" fill="#F0BC5E"/>
        <g transform="translate(5 20.003)" fill="#333">
            <circle cx="24.516" cy="10.187" r="1.29"/>
            <circle cx="14.194" cy="10.187" r="1.29"/>
            <path d="M14.466 18.78a5.437 5.437 0 0 0 4.889 3.021 5.435 5.435 0 0 0 4.889-3.022l.135-.272-2.308-1.155-.136.273a2.867 2.867 0 0 1-2.58 1.594 2.87 2.87 0 0 1-2.58-1.594l-.136-.273-2.309 1.155.136.272zM22.223 14.712 20.58 9.78l-2.449.817.937 2.81-1.58.789 1.154 2.308z"/>
            <circle cx="55.484" cy="10.187" r="1.29"/>
            <circle cx="65.806" cy="10.187" r="1.29"/>
            <path d="M55.756 18.78a5.437 5.437 0 0 0 4.89 3.021 5.435 5.435 0 0 0 4.888-3.022l.136-.272-2.309-1.155-.135.273a2.867 2.867 0 0 1-2.58 1.594 2.87 2.87 0 0 1-2.581-1.594l-.136-.273-2.308 1.155.135.272zM62.512 14.195l-1.58-.79.938-2.809-2.45-.817-1.643 4.933 3.582 1.791z"/>
            <path d="m68.59 28.785-1.493-.3v-2.05a10.537 10.537 0 0 0 4.973-7.216h.188a5.166 5.166 0 0 0 5.161-5.16 5.166 5.166 0 0 0-5.16-5.162V5.33A5.928 5.928 0 0 0 68.963 0l-1.155 2.308a3.36 3.36 0 0 1 1.854 2.717h-3.211L62.968.379l-2.065 1.547 2.323 3.097h-2.58c-.405 0-.79-.192-1.033-.515L56.516.38l-2.064 1.547.85 1.136a10.282 10.282 0 0 1-3.657 2.734c.109-1.41.49-2.8 1.123-4.063L50.459.578a13.572 13.572 0 0 0-1.427 6.044v2.276a5.166 5.166 0 0 0-5.161 5.161 5.166 5.166 0 0 0 5.161 5.162h.189a10.537 10.537 0 0 0 4.973 7.215v2.05l-1.493.299c-5.234 1.047-9.421 4.984-10.856 10.09A9.975 9.975 0 0 0 40 40.385a9.924 9.924 0 0 0-1.845-1.51c-1.435-5.106-5.622-9.044-10.856-10.09l-1.493-.3v-2.05a10.537 10.537 0 0 0 4.973-7.216h.189a5.166 5.166 0 0 0 5.161-5.16 5.166 5.166 0 0 0-5.161-5.162v-2.58c0-1.889-.447-3.779-1.29-5.467l-.136-.272-2.308 1.155.135.272c.47.94.783 1.959.928 2.999a3.354 3.354 0 0 1-2.626-1.845l-.995-1.989-1.667 2.501a5.922 5.922 0 0 1-4.037 2.577l-1.634-4.9-1.476 1.477a7.472 7.472 0 0 1-5.319 2.202h-.133a9.67 9.67 0 0 1 .93-3.022l.136-.272L9.168.578 9.032.85a12.271 12.271 0 0 0-1.214 4.176h-.076v3.87a5.166 5.166 0 0 0-5.161 5.162 5.166 5.166 0 0 0 5.16 5.161h.19a10.537 10.537 0 0 0 4.972 7.216v2.05l-1.493.298C4.8 30.106 0 35.96 0 42.702v10.067c0 4.27 3.472 7.742 7.742 7.742h7.742v2.58a2.583 2.583 0 0 0 2.58 2.581H61.936a2.583 2.583 0 0 0 2.581-2.58V60.51h7.742c4.27 0 7.742-3.472 7.742-7.742V42.702c0-6.743-4.799-12.596-11.41-13.917zm6.249-14.727a2.583 2.583 0 0 1-2.58 2.58v-5.16a2.584 2.584 0 0 1 2.58 2.58zm-28.387 0a2.583 2.583 0 0 1 2.58-2.58v5.16a2.583 2.583 0 0 1-2.58-2.58zm5.16 3.263V8.568a12.864 12.864 0 0 0 5.273-3.394l.665.887a3.89 3.89 0 0 0 3.095 1.547h9.032v9.713a8 8 0 0 1-4.447 7.196l-.714.357v4.51l-.762 3.05a1.29 1.29 0 0 1-1.252.979H58.79a1.29 1.29 0 0 1-1.252-.977l-.764-3.053v-4.51l-.713-.356a8.002 8.002 0 0 1-4.448-7.196zm1.594 13.994 1.324-.265.504 2.015a3.867 3.867 0 0 0 3.756 2.93h3.712a3.868 3.868 0 0 0 3.756-2.932l.503-2.013 1.324.265c.54.108 1.062.263 1.572.442-.82 2-1.27 4.148-1.27 6.309v10.832h-3.87v-5.161a2.583 2.583 0 0 0-2.582-2.58v-1.291a2.583 2.583 0 0 0-2.58-2.58h-6.498c-.09-1.9-.503-3.775-1.225-5.535.511-.18 1.035-.33 1.574-.436zm-3.883 1.582c.552 1.4.868 2.885.953 4.388h-3.042c-.717 0-1.421.08-2.106.227.955-1.9 2.407-3.49 4.195-4.615zm-2.09 6.968h12.122v1.29H48.812c-2.509 0-4.871.919-6.727 2.58H40.69l.384-.574a7.39 7.39 0 0 1 6.158-3.296zm-7.923 3.87h-1.395a10.02 10.02 0 0 0-6.727-2.58H20.645v-1.29h12.123a7.386 7.386 0 0 1 6.158 3.296l.384.574zm-5.762-29.677a2.583 2.583 0 0 1-2.58 2.58v-5.16a2.584 2.584 0 0 1 2.58 2.58zm-28.387 0a2.583 2.583 0 0 1 2.58-2.58v5.16a2.583 2.583 0 0 1-2.58-2.58zm5.162 3.263V7.608h.22c2.022 0 3.954-.59 5.598-1.69l.993 2.98h.93a8.502 8.502 0 0 0 6.47-2.974c1.02.996 2.383 1.58 3.853 1.654v9.743a8 8 0 0 1-4.448 7.196l-.713.357v4.134l-.378.378c-1.866 1.864-5.12 1.864-6.986 0l-.378-.378v-4.134l-.714-.357a8.002 8.002 0 0 1-4.447-7.196zM2.58 52.768V42.7c0-5.516 3.926-10.306 9.335-11.387l1.853-.372.268.268a7.47 7.47 0 0 0 5.318 2.203 7.467 7.467 0 0 0 5.317-2.203l.269-.268 1.853.372c3.545.708 6.495 3.047 8.08 6.197a10.016 10.016 0 0 0-2.106-.227H20.645a2.583 2.583 0 0 0-2.58 2.58v1.29a2.583 2.583 0 0 0-2.581 2.581v5.162h-3.871v-7.208a5.661 5.661 0 0 0-1.667-4.027L8.12 39.486a3.1 3.1 0 0 1 .912 2.204v7.26c-1.317.122-2.546.668-3.494 1.616l1.826 1.825a3.092 3.092 0 0 1 2.202-.912h3.337v6.451H7.742a5.168 5.168 0 0 1-5.161-5.162zm14.838 5.161h-1.935v-6.452h1.935a3.23 3.23 0 0 1 3.226 3.226 3.23 3.23 0 0 1-3.226 3.226zm.646 2.516c2.895-.325 5.16-2.76 5.16-5.74 0-2.981-2.265-5.416-5.16-5.741v-5.227h13.123c1.838 0 3.57.662 4.941 1.86V61.8c0 .454.093.885.237 1.29H18.065v-2.646zM38.71 61.8V46.316h2.58V61.8c0 .712-.579 1.29-1.29 1.29-.711 0-1.29-.578-1.29-1.29zm4.924 1.29c.144-.405.237-.836.237-1.29V45.596a7.462 7.462 0 0 1 4.94-1.86h13.124v5.228c-2.895.325-5.16 2.76-5.16 5.74 0 2.981 2.265 5.416 5.16 5.741v2.647H43.634v-.002zm33.785-10.322a5.166 5.166 0 0 1-5.16 5.161H62.58a3.23 3.23 0 0 1-3.226-3.226 3.23 3.23 0 0 1 3.226-3.226h7.853c.832 0 1.614.324 2.202.913l1.826-1.825c-.947-.948-2.176-1.493-3.494-1.617V38.065c0-1.775.356-3.541 1.009-5.19 3.298 2.081 5.442 5.753 5.442 9.827v10.066z"/>
        </g>
    </g>
</svg>
