<svg width="90" height="90" xmlns="http://www.w3.org/2000/svg">
    <g fill-rule="nonzero" fill="none">
        <path d="M49.286 46.734c-7.09 0-12.858-5.767-12.858-12.857 0-7.09 5.767-12.857 12.858-12.857 7.09 0 12.857 5.767 12.857 12.857 0 7.09-5.767 12.857-12.857 12.857z" fill="#F9BA48"/>
        <path d="M23.571 73.857a4.291 4.291 0 0 0-4.285 4.286 4.291 4.291 0 0 0 4.285 4.285 4.291 4.291 0 0 0 4.286-4.285 4.291 4.291 0 0 0-4.286-4.286zm0 5.714a1.43 1.43 0 1 1 .002-2.858 1.43 1.43 0 0 1-.002 2.858zM66.428 73.857a4.291 4.291 0 0 0-4.285 4.286 4.291 4.291 0 0 0 4.285 4.285 4.291 4.291 0 0 0 4.286-4.285 4.29 4.29 0 0 0-4.286-4.286zm0 5.714a1.43 1.43 0 1 1 .001-2.858 1.43 1.43 0 0 1 0 2.858z" fill="#333"/>
        <path d="M77.643 59.657a4.296 4.296 0 0 0-4.072-2.943H69.04c-2.74 0-5.427 1.036-7.466 2.857H53.57v-2.065c0-2.8-2.277-5.077-5.077-5.077a5.103 5.103 0 0 0-4.354 2.465l-2.806 4.677H37.79c-.452 0-.854-.217-1.102-.597a1.292 1.292 0 0 1-.098-1.25l2.873-6.461a4.25 4.25 0 0 0-2.112-5.573 4.236 4.236 0 0 0-5.051 1.184l-8.136 10.031L11.7 60.74A9.445 9.445 0 0 0 5 69.812v5.069a4.696 4.696 0 0 0 4.69 4.69h3.996c.697 4.837 4.858 8.571 9.885 8.571 5.028 0 9.189-3.734 9.886-8.571h23.086c.697 4.837 4.858 8.571 9.886 8.571 5.027 0 9.188-3.734 9.885-8.571h.115c4.727 0 8.571-3.844 8.571-8.572v-2.857c0-4.315-3.205-7.894-7.357-8.485zM46.59 56.364a2.232 2.232 0 0 1 1.904-1.078c1.225 0 2.22.995 2.22 2.22v2.065h-6.048l1.924-3.207zM23.571 85.285c-3.938 0-7.142-3.204-7.142-7.142 0-3.939 3.204-7.143 7.142-7.143 3.939 0 7.143 3.204 7.143 7.143 0 3.938-3.204 7.142-7.143 7.142zm42.857 0c-3.938 0-7.142-3.204-7.142-7.142 0-3.939 3.204-7.143 7.142-7.143 3.939 0 7.143 3.204 7.143 7.143 0 3.938-3.204 7.142-7.143 7.142zM82.143 71a5.72 5.72 0 0 1-5.714 5.714h-.115c-.697-4.837-4.858-8.572-9.885-8.572-5.028 0-9.189 3.735-9.886 8.572H33.457c-.697-4.837-4.858-8.572-9.886-8.572-5.027 0-9.188 3.735-9.885 8.572H9.69a1.834 1.834 0 0 1-1.833-1.833V72.43h3.572A3.574 3.574 0 0 0 15 68.857a3.574 3.574 0 0 0-3.571-3.571h-.715v2.857h.715c.392 0 .714.321.714.714a.716.716 0 0 1-.714.715H7.877c.102-2.827 1.942-5.263 4.665-6.1l13.295-4.091 8.683-10.706a1.381 1.381 0 0 1 1.644-.387c.685.314.993 1.127.688 1.815l-2.873 6.463a4.157 4.157 0 0 0 .315 3.966 4.156 4.156 0 0 0 3.496 1.897h24.944l.419-.419a8.383 8.383 0 0 1 5.887-2.438h4.532c.788 0 1.428.64 1.428 1.428v1.429h1.429a5.72 5.72 0 0 1 5.714 5.714V71zM50.714 38.143h-2.857c-.789 0-1.429 0-1.429-1.429h-2.857c0 2.857 1.923 4.306 4.286 4.306v1.409h2.857v-1.41c2.363 0 4.286-1.932 4.286-4.295s-1.923-4.296-4.286-4.296h-2.857a1.43 1.43 0 0 1 0-2.857h2.857c.789 0 1.429 0 1.429 1.429H55c0-2.857-1.923-4.266-4.286-4.266v-1.448h-2.857v1.448a4.282 4.282 0 0 0-4.286 4.276 4.282 4.282 0 0 0 4.286 4.276h2.857a1.43 1.43 0 0 1 0 2.857zM47.857 8.143h2.857v10h-2.857zM47.857 2.449h2.857v2.857h-2.857zM56.429 6.714h2.857V21h-2.857zM56.429 1h2.857v2.857h-2.857zM39.286 11h2.857v10h-2.857zM39.286 5.306h2.857v2.857h-2.857z" fill="#333"/>
    </g>
</svg>
