<svg width="90" height="90" xmlns="http://www.w3.org/2000/svg">
    <defs>
        <filter x="-25.6%" y="-25.6%" width="151.1%" height="151.1%" filterUnits="objectBoundingBox" id="a">
            <feOffset dy="6" in="SourceAlpha" result="shadowOffsetOuter1"/>
            <feGaussianBlur stdDeviation="3" in="shadowOffsetOuter1" result="shadowBlurOuter1"/>
            <feColorMatrix values="0 0 0 0 1 0 0 0 0 0.840930293 0 0 0 0 0.194045351 0 0 0 0.2 0" in="shadowBlurOuter1" result="shadowMatrixOuter1"/>
            <feMerge>
                <feMergeNode in="shadowMatrixOuter1"/>
                <feMergeNode in="SourceGraphic"/>
            </feMerge>
        </filter>
    </defs>
    <g filter="url(#a)" fill-rule="nonzero" fill="none">
        <path d="m66.588 48.493-1.825-1.826c.92-.92.92-2.418 0-3.338-.892-.892-2.447-.892-3.339 0l-1.826-1.826 1.291-1.29c.92-.921.92-2.419 0-3.34-.892-.891-2.446-.891-3.338 0l-1.291 1.291-1.826-1.825 2.582-2.582c.92-.92.92-2.418 0-3.339a2.363 2.363 0 0 0-3.338 0L51.096 33l-1.826-1.825 1.291-1.291c.447-.447.69-1.04.69-1.67 0-.63-.243-1.222-.69-1.669a2.363 2.363 0 0 0-3.338 0l-1.291 1.291-1.826-1.825 1.291-1.291a4.95 4.95 0 0 1 6.99 0 4.918 4.918 0 0 1 1.378 2.685 4.953 4.953 0 0 1 5.076 1.188 4.95 4.95 0 0 1 1.188 5.076 4.92 4.92 0 0 1 2.685 1.379 4.95 4.95 0 0 1 1.188 5.076 4.92 4.92 0 0 1 2.685 1.378 4.947 4.947 0 0 1 .001 6.99zM46.69 63.45l-3.698 3.696-9.005 3.86-13.068 11.76 1.727 1.919 4.39-3.95c.524.264 1.045.537 1.573.773l1.056-2.355c-.188-.085-.375-.189-.564-.278l6.295-5.666 9.069-3.885 4.048-4.05-1.824-1.824z" fill="#333"/>
        <path d="m38.236 18.644-19.57 19.57 4.5 4.5 4.422-4.278.016-.015a2.725 2.725 0 0 1 3.85 0 2.73 2.73 0 0 1 .34 3.434l-3.795 5.69 23.806 23.807 19.57-19.57-33.139-33.138zm11.482 31.052a6.644 6.644 0 0 1-9.395-9.395 6.644 6.644 0 0 1 9.395 9.395z" fill="#F9BA48"/>
        <path d="M45.021 52.932a7.88 7.88 0 0 1-5.61-2.325 7.88 7.88 0 0 1-2.325-5.609c0-2.12.826-4.113 2.325-5.61a7.878 7.878 0 0 1 5.61-2.325c2.12 0 4.112.826 5.61 2.325a7.878 7.878 0 0 1 2.324 5.61c0 2.12-.826 4.112-2.325 5.61a7.873 7.873 0 0 1-5.609 2.324zm0-13.286a5.323 5.323 0 0 0-3.785 1.568A5.312 5.312 0 0 0 39.668 45c0 1.428.557 2.772 1.568 3.784a5.318 5.318 0 0 0 3.785 1.569 5.322 5.322 0 0 0 3.784-1.569A5.312 5.312 0 0 0 50.374 45a5.323 5.323 0 0 0-1.569-3.785 5.314 5.314 0 0 0-3.784-1.568zM25.872 50.736l2.149 1.432 5.921-8.882a5.32 5.32 0 0 0-.663-6.692 5.31 5.31 0 0 0-7.502 0L18.01 44.36l-2.582 12.91-4.076 4.08c-.11-.227-.234-.446-.339-.673L8.67 61.759c.236.51.502 1.01.762 1.511l-4.053 4.053 1.826 1.825 10.604-10.604 2.582-12.91 7.214-7.214a2.725 2.725 0 0 1 3.85 0 2.73 2.73 0 0 1 .34 3.435l-5.922 8.881zM10.274 31.032l-2.395-.963A40.052 40.052 0 0 0 6.2 35.234l2.504.628c.412-1.637.94-3.262 1.57-4.83zM15.297 22.232l-2.048-1.574a39.644 39.644 0 0 0-3.005 4.522l2.24 1.278a37.623 37.623 0 0 1 2.813-4.226zM5.51 51.399c.285 1.78.697 3.56 1.225 5.289l2.468-.754a37.224 37.224 0 0 1-1.145-4.943l-2.548.408zM7.582 44.998c0-1.382.077-2.776.227-4.141l-2.566-.283a40.414 40.414 0 0 0-.23 5.42l2.582-.06a45.884 45.884 0 0 1-.013-.936zM78.31 22.782A40.617 40.617 0 0 0 75 18.487l-1.934 1.709a37.837 37.837 0 0 1 3.1 4.02l2.145-1.434zM22.49 15.094l-1.556-2.06a40.622 40.622 0 0 0-4.1 3.552l1.818 1.834a37.998 37.998 0 0 1 3.838-3.326zM82.42 43.284l2.58-.12a40.235 40.235 0 0 0-.61-5.389l-2.54.461c.302 1.658.493 3.354.57 5.048zM83.052 32.513a40.172 40.172 0 0 0-2.039-5.03l-2.322 1.13a37.554 37.554 0 0 1 1.908 4.704l2.453-.804zM31.322 10.146l-.946-2.403a40.025 40.025 0 0 0-4.9 2.325l1.264 2.251a37.047 37.047 0 0 1 4.582-2.173zM46.235 7.58c1.69.054 3.39.224 5.051.504l.429-2.547A40.365 40.365 0 0 0 46.317 5l-.082 2.58zM63.98 77.29l1.312 2.224a40.349 40.349 0 0 0 4.477-3.063l-1.598-2.027a38.076 38.076 0 0 1-4.19 2.865zM65.389 13.581a37.474 37.474 0 0 1 4.061 3.05l1.688-1.958a40.476 40.476 0 0 0-4.342-3.258l-1.407 2.166zM56.223 9.264a37.416 37.416 0 0 1 4.731 1.845l1.1-2.336a39.642 39.642 0 0 0-5.06-1.972l-.771 2.463zM77.936 62.85l2.27 1.232a39.983 39.983 0 0 0 2.261-4.935l-2.415-.913a37.042 37.042 0 0 1-2.116 4.616zM81.517 53.373l2.516.574c.403-1.757.687-3.56.847-5.36l-2.572-.23a37.27 37.27 0 0 1-.791 5.016zM71.937 71.019l1.856 1.795a40.006 40.006 0 0 0 3.501-4.148l-2.08-1.528a37.933 37.933 0 0 1-3.277 3.88zM54.639 81.189l.663 2.497a39.638 39.638 0 0 0 5.137-1.747l-.995-2.383c-1.557.65-3.173 1.2-4.805 1.633zM33.843 83.435c1.736.502 3.52.89 5.303 1.154l.376-2.555a37.398 37.398 0 0 1-4.961-1.08l-.718 2.481zM35.55 6.106l.607 2.509a37.674 37.674 0 0 1 5.004-.859l-.264-2.569c-1.801.186-3.6.496-5.348.92zM45.02 82.436l-.439-.003-.023 2.582.462.003c1.656 0 3.323-.102 4.953-.303l-.317-2.562a38.183 38.183 0 0 1-4.636.283z" fill="#333"/>
    </g>
</svg>
