<?xml version="1.0" encoding="UTF-8"?>
<svg width="100px" height="100px" viewBox="0 0 100 100" version="1.1" xmlns="http://www.w3.org/2000/svg" xmlns:xlink="http://www.w3.org/1999/xlink">
    <title>new-product</title>
    <g id="Page-1" stroke="none" stroke-width="1" fill="none" fill-rule="evenodd">
        <g id="Gram_web" transform="translate(-410.000000, -1343.000000)" fill="#FFFFFF">
            <g id="Service" transform="translate(0.000000, 873.000000)">
                <g id="service-info" transform="translate(190.000000, 302.000000)">
                    <g id="Product-Design" transform="translate(190.000000, 138.000000)">
                        <g id="Group" transform="translate(30.000000, 30.000000)">
                            <g id="service/new-product" transform="translate(-0.000000, 0.000000)">
                                <g id="new-product" transform="translate(0.000000, 3.000000)" fill-rule="nonzero">
                                    <path d="M80.0292968,55.0645161 L19.9707032,55.0645161 L13.5190903,67.9677419 L19.3548387,67.9677419 L19.3548387,97 L80.6451613,97 L80.6451613,67.9677419 L86.4809097,67.9677419 L80.0292968,55.0645161 Z M78.0352194,58.2903226 L81.2610258,64.7419355 L55.8357484,64.7419355 L52.6099419,58.2903226 L78.0352194,58.2903226 Z M21.9647806,58.2903226 L47.3900581,58.2903226 L44.1642516,64.7419355 L18.7389742,64.7419355 L21.9647806,58.2903226 Z M77.4193548,93.7741935 L51.6129032,93.7741935 L51.6129032,82.483871 L48.3870968,82.483871 L48.3870968,93.7741935 L22.5806452,93.7741935 L22.5806452,67.9677419 L46.158329,67.9677419 L48.3870968,63.5094192 L48.3870968,77.6451613 L51.6129032,77.6451613 L51.6129032,63.5094192 L53.841671,67.9677419 L77.4193548,67.9677419 L77.4193548,93.7741935 Z" id="Shape"></path>
                                    <polygon id="Path" points="25.8064516 80.8709677 35.483871 80.8709677 35.483871 84.0967742 25.8064516 84.0967742"></polygon>
                                    <polygon id="Path" points="25.8064516 87.3225806 35.483871 87.3225806 35.483871 90.5483871 25.8064516 90.5483871"></polygon>
                                    <polygon id="Path" points="38.7096774 87.3225806 41.9354839 87.3225806 41.9354839 90.5483871 38.7096774 90.5483871"></polygon>
                                    <path d="M17.709646,26.524477 L20.053396,22.5229335 L15.9014302,20.7241683 L12.9032258,17.016381 L9.90502137,20.7225931 L5.75305565,22.5213585 L8.09680565,26.522902 L8.44332782,31.2954575 L12.9032258,30.1613849 L17.3646988,31.2970325 L17.709646,26.524477 Z M14.5484185,25.5400391 L14.4255607,27.2190966 L12.9032258,26.8324093 L11.3824659,27.2190966 L11.2580331,25.5400391 L10.3759766,24.03188 L11.913275,23.3664 L12.9032258,22.1449093 L13.8916016,23.367975 L15.4289,24.0342427 L14.5484185,25.5400391 Z" id="Shape"></path>
                                    <path d="M93.9031944,30.524477 L96.2469444,26.5229335 L92.0949786,24.7241683 L89.0967742,21.016381 L86.0985698,24.7225931 L81.946604,26.5213585 L84.290354,30.522902 L84.6368762,35.2954575 L89.0967742,34.1613849 L93.5582472,35.2970325 L93.9031944,30.524477 Z M90.7419669,29.5400391 L90.6191091,31.2190966 L89.0967742,30.8324093 L87.5760143,31.2190966 L87.4531565,29.5400391 L86.5711,28.03188 L88.1083984,27.3664 L89.0967742,26.1449093 L90.08515,27.367975 L91.6224484,28.0342427 L90.7419669,29.5400391 Z" id="Shape"></path>
                                    <g id="Group-4" transform="translate(86.322581, 46.548387)">
                                        <polygon id="Path" points="3.22580645 0 6.4516129 0 6.4516129 3.22580645 3.22580645 3.22580645"></polygon>
                                        <polygon id="Path" points="3.22580645 6.4516129 6.4516129 6.4516129 6.4516129 9.67741935 3.22580645 9.67741935"></polygon>
                                        <polygon id="Path" points="6.4516129 3.22580645 9.67741935 3.22580645 9.67741935 6.4516129 6.4516129 6.4516129"></polygon>
                                        <polygon id="Path" points="0 3.22580645 3.22580645 3.22580645 3.22580645 6.4516129 0 6.4516129"></polygon>
                                    </g>
                                    <g id="Group-5" transform="translate(89.483871, 0.000000)">
                                        <polygon id="Path" points="3.22580645 0 6.4516129 0 6.4516129 3.22580645 3.22580645 3.22580645"></polygon>
                                        <polygon id="Path" points="3.22580645 6.4516129 6.4516129 6.4516129 6.4516129 9.67741935 3.22580645 9.67741935"></polygon>
                                        <polygon id="Path" points="6.4516129 3.22580645 9.67741935 3.22580645 9.67741935 6.4516129 6.4516129 6.4516129"></polygon>
                                        <polygon id="Path" points="0 3.22580645 3.22580645 3.22580645 3.22580645 6.4516129 0 6.4516129"></polygon>
                                    </g>
                                    <g id="Group-3" transform="translate(0.000000, 47.000000)">
                                        <polygon id="Path" points="3.22580645 0 6.4516129 0 6.4516129 3.22580645 3.22580645 3.22580645"></polygon>
                                        <polygon id="Path" points="3.22580645 6.4516129 6.4516129 6.4516129 6.4516129 9.67741935 3.22580645 9.67741935"></polygon>
                                        <polygon id="Path" points="6.4516129 3.22580645 9.67741935 3.22580645 9.67741935 6.4516129 6.4516129 6.4516129"></polygon>
                                        <polygon id="Path" points="0 3.22580645 3.22580645 3.22580645 3.22580645 6.4516129 0 6.4516129"></polygon>
                                    </g>
                                    <g id="Group-6" transform="translate(1.000000, 0.000000)">
                                        <polygon id="Path" points="3.22580645 0 6.4516129 0 6.4516129 3.22580645 3.22580645 3.22580645"></polygon>
                                        <polygon id="Path" points="3.22580645 6.4516129 6.4516129 6.4516129 6.4516129 9.67741935 3.22580645 9.67741935"></polygon>
                                        <polygon id="Path" points="6.4516129 3.22580645 9.67741935 3.22580645 9.67741935 6.4516129 6.4516129 6.4516129"></polygon>
                                        <polygon id="Path" points="0 3.22580645 3.22580645 3.22580645 3.22580645 6.4516129 0 6.4516129"></polygon>
                                    </g>
                                </g>
                                <g id="Group-2" transform="translate(26.000000, 0.000000)">
                                    <path d="M25.03875,52.5 L23.085,52.5 C22.57125,52.5 22.07625,52.3275 21.73875,52.02375 L19.14,50.31375 L28.98375,50.31375 L26.385,52.02375 C26.0475,52.3275 25.55625,52.5 25.03875,52.5 Z" id="Path"></path>
                                    <path d="M29.0775,48.12375 L19.10625,48.12375 C18.5025,48.12375 18.01125,47.63625 18.01125,47.0325 C18.01125,46.42875 18.5025,45.9375 19.10625,45.9375 L29.0775,45.9375 C29.68125,45.9375 30.16875,46.42875 30.16875,47.0325 C30.16875,47.63625 29.68125,48.12375 29.0775,48.12375 Z" id="Path"></path>
                                    <path d="M30.1575,43.75125 L17.96625,43.75125 C17.96625,35.11125 10.93875,31.3725 10.93875,23.565 C10.93875,15.42 17.49375,10.93875 24.05625,10.93875 C30.61875,10.93875 37.18875,15.4275 37.18875,23.565 C37.18875,31.3725 30.1575,34.99125 30.1575,43.75125 Z" id="Path"></path>
                                    <path d="M6.65625,23.74875 L0,23.74875 L0,19.99875 L6.82875,19.99875 C6.6825,20.82375 6.60375,21.67125 6.60375,22.53375 L6.65625,23.74875 L6.65625,23.74875 Z" id="Path"></path>
                                    <path d="M48.12375,23.74875 L41.5125,23.74875 L41.56125,22.53375 C41.56125,21.67125 41.48625,20.82375 41.34,19.99875 L48.12375,19.99875 L48.12375,23.74875 Z" id="Path"></path>
                                    <path d="M10.63125,12.42375 C9.78,13.35375 9.04125,14.37375 8.44125,15.465 L3.0375,11.62875 L5.20875,8.5725 L10.63125,12.42375 L10.63125,12.42375 Z" id="Path"></path>
                                    <path d="M37.51875,12.405 L42.915,8.5725 L45.08625,11.62875 L39.71625,15.44625 C39.1125,14.355 38.37,13.335 37.51875,12.405 L37.51875,12.405 Z" id="Path"></path>
                                    <path d="M17.6175,7.81875 C16.42125,8.25 15.28875,8.7975 14.23875,9.45 L11.34,3.525 L14.7075,1.875 L17.6175,7.81875 Z" id="Path"></path>
                                    <path d="M30.51375,7.80375 L33.41625,1.875 L36.78375,3.525 L33.89625,9.4275 C32.8425,8.7825 31.71,8.235 30.51375,7.80375 L30.51375,7.80375 Z" id="Path"></path>
                                    <path d="M25.93875,6.78375 C25.3275,6.7275 24.70875,6.6975 24.0825,6.6975 C23.44125,6.6975 22.81125,6.7275 22.18875,6.7875 L22.18875,0 L25.93875,0 L25.93875,6.78375 Z" id="Path"></path>
                                </g>
                            </g>
                        </g>
                    </g>
                </g>
            </g>
        </g>
    </g>
</svg>