<?xml version="1.0" encoding="UTF-8"?>
<svg width="100px" height="79px" viewBox="0 0 100 79" version="1.1" xmlns="http://www.w3.org/2000/svg" xmlns:xlink="http://www.w3.org/1999/xlink">
    <title>user-experience</title>
    <g id="Page-1" stroke="none" stroke-width="1" fill="none" fill-rule="evenodd">
        <g id="Gram_web" transform="translate(-602.000000, -1354.000000)" fill="#FFFFFF" fill-rule="nonzero">
            <g id="Service" transform="translate(0.000000, 873.000000)">
                <g id="service-info" transform="translate(190.000000, 302.000000)">
                    <g id="UI/UX-design" transform="translate(382.000000, 138.000000)">
                        <g id="Group" transform="translate(30.000000, 30.000000)">
                            <g id="user-experience" transform="translate(0.000000, 11.000000)">
                                <path d="M10.3345703,5.76171875 C7.91445312,5.76171875 5.94550781,7.73300781 5.94550781,10.15625 C5.94550781,12.5794922 7.91445312,14.5507812 10.3345703,14.5507812 C12.7546875,14.5507812 14.7234375,12.5794922 14.7234375,10.15625 C14.7234375,7.73300781 12.7546875,5.76171875 10.3345703,5.76171875 Z M10.3345703,11.6210938 C9.52988281,11.6210938 8.87519531,10.9640625 8.87519531,10.15625 C8.87519531,9.3484375 9.52988281,8.69140625 10.3345703,8.69140625 C11.1390625,8.69140625 11.79375,9.3484375 11.79375,10.15625 C11.79375,10.9640625 11.1390625,11.6210938 10.3345703,11.6210938 Z" id="Shape"></path>
                                <path d="M23.0054687,5.76171875 C20.5853516,5.76171875 18.6164063,7.73300781 18.6164063,10.15625 C18.6164063,12.5794922 20.5853516,14.5507812 23.0054687,14.5507812 C25.4255859,14.5507812 27.3943359,12.5794922 27.3943359,10.15625 C27.3943359,7.73300781 25.4255859,5.76171875 23.0054687,5.76171875 L23.0054687,5.76171875 Z M23.0054687,11.6210938 C22.2007812,11.6210938 21.5460938,10.9640625 21.5460938,10.15625 C21.5460938,9.3484375 22.2007812,8.69140625 23.0054687,8.69140625 C23.8099609,8.69140625 24.4646484,9.3484375 24.4646484,10.15625 C24.4646484,10.9640625 23.8099609,11.6210938 23.0054687,11.6210938 Z" id="Shape"></path>
                                <path d="M35.3109375,5.76171875 C32.8908203,5.76171875 30.921875,7.73300781 30.921875,10.15625 C30.921875,12.5794922 32.8908203,14.5507812 35.3109375,14.5507812 C37.7310547,14.5507812 39.6998047,12.5794922 39.6998047,10.15625 C39.6998047,7.73300781 37.7310547,5.76171875 35.3109375,5.76171875 Z M35.3109375,11.6210938 C34.50625,11.6210938 33.8515625,10.9640625 33.8515625,10.15625 C33.8515625,9.3484375 34.50625,8.69140625 35.3109375,8.69140625 C36.1154297,8.69140625 36.7701172,9.3484375 36.7701172,10.15625 C36.7701172,10.9640625 36.1154297,11.6210938 35.3109375,11.6210938 Z" id="Shape"></path>
                                <path d="M93.721875,10.15625 C93.721875,7.73300781 91.7529297,5.76171875 89.3328125,5.76171875 L48.3960938,5.76171875 C45.9759766,5.76171875 44.0070313,7.73300781 44.0070313,10.15625 C44.0070313,12.5794922 45.9759766,14.5507812 48.3960938,14.5507812 L89.3330078,14.5507812 C91.7529297,14.5507812 93.721875,12.5794922 93.721875,10.15625 Z M89.3330078,11.6210938 L48.3960938,11.6210938 C47.5914063,11.6210938 46.9367188,10.9640625 46.9367188,10.15625 C46.9367188,9.3484375 47.5914063,8.69140625 48.3960938,8.69140625 L89.3330078,8.69140625 C90.1376953,8.69140625 90.7923828,9.3484375 90.7923828,10.15625 C90.7923828,10.9640625 90.1376953,11.6210938 89.3330078,11.6210938 Z" id="Shape"></path>
                                <path d="M78.8669922,56.3349609 C78.4017578,55.6736328 77.4882812,55.5142578 76.8261719,55.9796875 C76.1644531,56.4451172 76.0054687,57.3589844 76.4710937,58.0207031 L80.1373047,63.2324219 C80.6039062,63.8660156 80.4337891,64.8332031 79.7818359,65.2720703 C79.1451172,65.7388672 78.1810547,65.5685547 77.7398437,64.9169922 L68.9304688,52.3951172 C68.4738281,51.7462891 67.7277344,51.3587891 66.934375,51.3585938 C66.9339844,51.3585938 66.9339844,51.3585938 66.9335937,51.3585938 C66.140625,51.3585938 65.3945312,51.7457031 64.9376953,52.3939453 L56.1173828,64.915625 C55.6728516,65.5679688 54.7109375,65.7396484 54.0728516,65.2712891 C53.4126953,64.80625 53.2542969,63.890625 53.7195312,63.2302734 L64.1537109,48.4171875 C64.7457031,47.5767578 64.7458984,46.4472656 64.1546875,45.6066406 L55.3277344,33.0578125 C54.8630859,32.3970703 55.0224609,31.48125 55.6820312,31.0171875 C56.3439453,30.5527344 57.2597656,30.7119141 57.7244141,31.371875 L64.9416016,41.6318359 C65.3980469,42.2806641 66.1443359,42.6683594 66.9376953,42.6685547 L66.9384766,42.6685547 C67.7318359,42.6685547 68.4779297,42.2814453 68.9345703,41.6330078 L76.1628906,31.3708984 C76.6037109,30.7181641 77.5697266,30.5507812 78.2046875,31.0181641 C78.8580078,31.4580078 79.0255859,32.4244141 78.5587891,33.0585938 L69.7181641,45.6099609 C69.1261719,46.4503906 69.1259766,47.5798828 69.7173828,48.4205078 L72.5359375,52.4271484 C73.0013672,53.0886719 73.9148437,53.2482422 74.5767578,52.7824219 C75.2384766,52.3169922 75.3974609,51.403125 74.9318359,50.7414063 L72.3111328,47.0160156 L80.9537109,34.7457031 C82.3542969,32.8429688 81.8505859,29.9416016 79.8910156,28.6224609 C77.9886719,27.2222656 75.0878906,27.7246094 73.7675781,29.6835938 L66.9386719,39.3787109 L60.1203125,29.6861328 C58.7271484,27.70625 55.9814453,27.2277344 53.9972656,28.6201172 C52.015625,30.0142578 51.5373047,32.7609375 52.9310547,34.7429688 L61.5605469,47.0109375 L51.3244141,61.5429688 C49.9287109,63.5238281 50.4046875,66.2705078 52.3861328,67.6667969 C54.2951172,69.0664062 57.1791016,68.5603516 58.5105469,66.6052734 L66.9332031,54.6482422 L75.3435547,66.6027344 C76.6669922,68.5587891 79.5583984,69.0667969 81.4664062,67.66875 C83.4265625,66.3498047 83.9328125,63.4484375 82.5326172,61.5457031 L78.8669922,56.3349609 Z" id="Path"></path>
                                <path d="M43.1984375,27.8205078 C40.7753906,27.8205078 38.8039062,29.7917969 38.8039062,32.2150391 L38.8039062,54.1144531 C38.8039062,55.6099609 38.3777344,57.3533203 35.2179687,58.9447266 C34.25,59.4322266 33.1503906,59.6792969 31.9373047,59.6792969 C30.6119141,59.6775391 29.4628906,59.3541016 28.425,58.6910156 C25.9523437,57.1113281 25.4556641,55.7775391 25.4556641,54.1373047 L25.4556641,43.9453125 C25.4556641,43.1363281 24.8,42.4804688 23.9908203,42.4804688 C23.1816406,42.4804688 22.5259766,43.1363281 22.5259766,43.9453125 L22.5259766,54.1375 C22.5259766,57.1244141 23.8183594,59.2246094 26.8476562,61.1601563 C28.3699219,62.1326172 30.0335938,62.6066406 31.9496094,62.6091797 C33.6123047,62.6091797 35.1552734,62.2566406 36.5357422,61.5615234 C40.0333984,59.7998047 41.7335937,57.3640625 41.7335937,54.1146484 L41.7335937,32.2150391 C41.7335937,31.4072266 42.390625,30.7501953 43.1984375,30.7501953 C44.00625,30.7501953 44.6632812,31.4072266 44.6632812,32.2150391 L44.6632812,54.1144531 C44.6632812,58.5164063 42.3720703,61.9023438 37.8533203,64.1779297 C36.0601562,65.0808594 34.0738281,65.5386719 31.9496094,65.5386719 L31.9292969,65.5386719 C29.4888672,65.5353516 27.2484375,64.8927734 25.2701172,63.6287109 C21.3990234,61.1554688 19.5958984,58.1396484 19.5958984,54.1373047 L19.5958984,32.2150391 C19.5958984,31.4072266 20.2529297,30.7501953 21.0607422,30.7501953 C21.8685547,30.7501953 22.5255859,31.4072266 22.5255859,32.2150391 L22.5255859,37.109375 C22.5255859,37.9183594 23.18125,38.5742188 23.9904297,38.5742188 C24.7996094,38.5742188 25.4552734,37.9183594 25.4552734,37.109375 L25.4552734,32.2150391 C25.4552734,29.7917969 23.4837891,27.8205078 21.0607422,27.8205078 C18.6376953,27.8205078 16.6662109,29.7917969 16.6662109,32.2150391 L16.6662109,54.1375 C16.6662109,59.0949219 19.0302734,63.1189453 23.6927734,66.0976563 C26.1484375,67.6667969 28.9183594,68.4644531 31.9271484,68.4685547 L31.9494141,68.4685547 C34.5355469,68.4685547 36.9652344,67.9054688 39.1708984,66.7947266 C46.1316406,63.2890625 47.5927734,57.9642578 47.5927734,54.1146484 L47.5927734,32.2150391 C47.5927734,29.7917969 45.6214844,27.8205078 43.1984375,27.8205078 L43.1984375,27.8205078 Z" id="Path"></path>
                                <path d="M92.6757812,0 L7.32421875,0 C3.28554687,0 0,3.28554688 0,7.32421875 L0,71.5820312 C0,75.6207031 3.28554687,78.90625 7.32421875,78.90625 L92.6757812,78.90625 C96.7144531,78.90625 100,75.6207031 100,71.5820312 L100,7.32421875 C100,3.28554688 96.7144531,0 92.6757812,0 Z M92.6757812,75.9765625 L7.32421875,75.9765625 C4.90117188,75.9765625 2.9296875,74.0052734 2.9296875,71.5820312 L2.9296875,20.4101562 L85.546875,20.4101562 C86.3560547,20.4101562 87.0117188,19.7542969 87.0117188,18.9453125 C87.0117188,18.1363281 86.3560547,17.4804688 85.546875,17.4804688 L2.9296875,17.4804688 L2.9296875,7.32421875 C2.9296875,4.90097656 4.90117188,2.9296875 7.32421875,2.9296875 L92.6757812,2.9296875 C95.0988281,2.9296875 97.0703125,4.90097656 97.0703125,7.32421875 L97.0703125,17.4804688 L92.3828125,17.4804688 C91.5736328,17.4804688 90.9179688,18.1363281 90.9179688,18.9453125 C90.9179688,19.7542969 91.5736328,20.4101562 92.3828125,20.4101562 L97.0703125,20.4101562 L97.0703125,71.5820312 C97.0703125,74.0052734 95.0988281,75.9765625 92.6757812,75.9765625 Z" id="Shape"></path>
                            </g>
                        </g>
                    </g>
                </g>
            </g>
        </g>
    </g>
</svg>