<?xml version="1.0" encoding="UTF-8"?>
<svg width="90px" height="90px" viewBox="0 0 90 90" version="1.1" xmlns="http://www.w3.org/2000/svg" xmlns:xlink="http://www.w3.org/1999/xlink">
    <title>data</title>
    <g id="Page-1" stroke="none" stroke-width="1" fill="none" fill-rule="evenodd">
        <g id="Gram_web" transform="translate(-1415.000000, -1348.000000)" fill="#FFFFFF" fill-rule="nonzero">
            <g id="Service" transform="translate(0.000000, 873.000000)">
                <g id="service-info" transform="translate(190.000000, 302.000000)">
                    <g id="Data-Analysis" transform="translate(1190.000000, 138.000000)">
                        <g id="Group" transform="translate(30.000000, 30.000000)">
                            <g id="service/data" transform="translate(5.000000, 5.000000)">
                                <path d="M3.69942696,19.9453625 C3.50872875,17.7823161 3.6346615,15.6042777 4.07362739,13.4778119 C4.66071431,10.8296242 5.81389917,8.63119665 7.50019996,6.94549581 C9.86293968,4.58095686 13.1857676,3.28504805 17.3637394,3.0931504 C19.3876599,3.01699098 21.4139792,3.15551713 23.4079157,3.50513056 L23.9392324,0.484541578 C21.7270122,0.0965484691 19.479411,-0.0563700128 17.2354078,0.02938429 C12.2568629,0.259061834 8.25159918,1.85601017 5.33235611,4.77765196 C3.22388063,6.88552764 1.79184438,9.59248401 1.07762526,12.8265591 C1.07642597,12.832556 1.0746269,12.8391524 1.07342746,12.8451492 C0.570895553,15.2678571 0.427571954,17.750533 0.645255894,20.2146188 L3.69942696,19.9453625 Z" id="Path"></path>
                                <path d="M10.4242403,39.9812767 C9.50073301,38.2961753 8.65398445,36.6026785 7.90678304,34.946362 L5.1116738,36.2074892 C5.89125802,37.9351679 6.77398724,39.701226 7.73587423,41.4552905 L10.4242403,39.9812767 Z" id="Path"></path>
                                <path d="M1.53698035,25.8702025 C1.9213753,27.5127266 2.38852603,29.135461 2.93663379,30.7312101 L5.83848617,29.7399387 C5.32396051,28.2419377 4.88439498,26.7193497 4.52398724,25.1781716 L1.53698035,25.8702025 Z" id="Path"></path>
                                <path d="M22.3980543,56.8676706 C22.2643256,56.7147522 22.1311967,56.563033 21.9986674,56.4101146 L19.6845016,58.4208422 C19.8200294,58.5773587 19.9561567,58.7338753 20.0940832,58.8903918 C20.872468,59.776719 21.6826359,60.6702426 22.5023987,61.5469749 C22.8700026,61.9391658 23.2412047,62.3307569 23.6166044,62.7205491 L25.826426,60.5946828 C25.460621,60.2150853 25.0990138,59.8342883 24.7422042,59.4522921 C23.9434301,58.5989472 23.1554504,57.7288112 22.3980543,56.8676706 L22.3980543,56.8676706 Z" id="Path"></path>
                                <path d="M15.9796774,53.9154451 L18.3999867,52.0336487 C18.1775054,51.7470016 17.9574227,51.4603544 17.7391391,51.1725079 C16.8054371,49.944363 15.9017191,48.697628 15.0537712,47.4676839 L12.5291178,49.2079557 C13.4046508,50.4774787 14.3359541,51.7625932 15.2978411,53.0273187 C15.5221216,53.3241604 15.75,53.6198028 15.9796774,53.9154451 L15.9796774,53.9154451 Z" id="Path"></path>
                                <path d="M26.2246136,65.3459488 C29.1216684,68.1728411 32.1698427,70.8402184 35.3559434,73.3354878 C39.6772388,76.7362739 44.2893789,79.7502665 49.1395921,82.3408848 C51.9724814,83.8490805 54.9085155,85.1551838 57.9249067,86.2501999 L55.1244004,87.0519723 L55.9675506,90 L63.8077692,87.7565965 C64.6215352,87.5239206 65.0922841,86.6747735 64.8596082,85.8604077 L62.8164978,78.7194162 L59.8678704,79.5625666 L61.1667776,84.0991471 C57.5057302,82.940565 53.9610207,81.4455624 50.5776252,79.6327292 C45.8875267,77.1272655 41.4277053,74.2128197 37.2497335,70.9241738 C34.1499867,68.4966685 31.1839685,65.9018524 28.3654717,63.1523188 L26.2246136,65.3459488 Z" id="Path"></path>
                                <path d="M89.0405117,65.8472814 C88.4144456,61.9361673 87.1209354,57.7288112 85.1953625,53.3421509 L82.3876598,54.5744937 C84.2082888,58.7224814 85.4274386,62.679171 86.0121268,66.3312234 C87.1095416,73.1879664 85.9041844,78.5964818 82.5273854,81.9744802 C80.8548773,83.6469883 78.6798375,84.7935768 76.0622334,85.3836621 C73.9459621,85.8598081 71.5466418,85.9731476 68.9290377,85.7224814 C68.283782,85.6607143 67.618137,85.57496 66.9500933,85.4694162 L66.4715485,88.4978012 C67.1995603,88.6129398 67.9281716,88.7058901 68.6363938,88.7742537 C69.633662,88.8696029 70.6051439,88.9175773 71.5508396,88.9175773 C73.2941097,88.9283715 75.0331822,88.7454691 76.7362739,88.374267 C79.9289711,87.6540511 82.6065431,86.2304103 84.6952291,84.1417244 C88.7964419,80.0405117 90.2986406,73.7150853 89.0405117,65.8472814 L89.0405117,65.8472814 Z" id="Path"></path>
                                <path d="M81.607476,46.2419377 L78.9436967,47.7603278 C79.6819029,49.055637 80.3781317,50.3605411 81.0131929,51.6384595 L83.7597281,50.2753864 C83.0994802,48.9440964 82.3756662,47.58762 81.607476,46.2419377 L81.607476,46.2419377 Z" id="Path"></path>
                                <path d="M74.4904717,35.5838219 L72.0545709,37.4464286 C73.1975613,38.9414312 74.3129664,40.4856077 75.3714018,42.0381796 L77.9056503,40.3117005 C76.8154317,38.7129531 75.6664445,37.1220016 74.4904717,35.5838219 L74.4904717,35.5838219 Z" id="Path"></path>
                                <path d="M66.9105144,26.722348 L64.6934968,28.8392191 C65.9912047,30.1986941 67.269123,31.6133395 68.4912713,33.0423774 L70.8216285,31.0496401 C69.5628998,29.5786247 68.2472014,28.1226013 66.9105144,26.722348 Z" id="Path"></path>
                                <path d="M28.9159782,10.7882463 L31.9143791,10.1471881 L30.9243071,5.51585828 C33.7380064,6.51372609 36.476146,7.71608479 39.1153385,9.11154043 C43.7442697,11.555837 48.1507196,14.3995203 52.2831156,17.6126065 C54.2314765,19.1160048 56.1942298,20.7477346 58.1162047,22.4610208 C59.1818363,23.4127131 60.2552638,24.4093817 61.3059034,25.4240405 C61.7610607,25.863606 62.2258129,26.321162 62.688766,26.7829158 L64.8566098,24.615072 C64.3816631,24.1407249 63.9043177,23.6705757 63.4353677,23.2184169 C62.3571429,22.1761727 61.254331,21.151919 60.1587153,20.1726413 C58.1821694,18.4113807 56.1630463,16.7328758 54.1619136,15.1886994 C52.2129531,13.6733075 50.1950292,12.2376733 48.1249334,10.8787979 C49.3009062,10.2155517 50.4822761,9.58768656 51.6390591,9.01259324 L50.2747868,6.2666577 C48.8991204,6.94909381 47.4946695,7.70109267 46.1010128,8.49986681 L47.0748934,10.1993603 C44.9484274,8.84468279 42.7733874,7.57875807 40.5485741,6.40038642 C38.5666311,5.35394456 36.5331157,4.41184698 34.4540245,3.57589289 L37.1555836,2.99900049 L36.5163246,0 L28.5423774,1.70429097 C27.714219,1.88119666 27.1865004,2.6955624 27.3634061,3.52372068 L28.9159782,10.7882463 Z" id="Path"></path>
                                <path d="M0.484541608,66.0871535 C0.0965484998,68.2993736 -0.0563699821,70.5469749 0.0299839625,72.7909782 C0.258462069,77.7689232 1.8554104,81.7735873 4.77765183,84.6946295 C6.88552767,86.8031049 9.59428296,88.2339419 12.8265592,88.9475612 C12.8325559,88.948161 12.8391524,88.94996 12.8463486,88.9511594 C14.5362474,89.3019723 16.2591285,89.4788779 17.9862073,89.4788779 C18.7292111,89.4788779 19.4722147,89.4464951 20.2146189,89.38113 L19.9453625,86.3257595 C17.7823161,86.5176572 15.6036781,86.3911248 13.4778119,85.9509595 C10.8290245,85.3656716 8.63119668,84.213686 6.94549569,82.5267856 C4.58155653,80.1628465 3.28504793,76.839419 3.09315027,72.6626465 C3.01699085,70.6381263 3.15431773,68.6124067 3.50513059,66.6172708 L0.484541608,66.0871535 Z" id="Path"></path>
                                <path d="M36.2074893,84.9141125 C37.9363673,84.1351279 39.7018257,83.2511993 41.4546908,82.2905117 L39.9818763,79.6021455 C38.2973746,80.5250533 36.6032782,81.3724013 34.946362,82.1190031 L36.2074893,84.9141125 Z" id="Path"></path>
                                <path d="M25.8702026,88.4894056 C27.5133262,88.1050106 29.1360607,87.6378597 30.73121,87.0897521 L29.7399387,84.1873001 C28.2425373,84.7024254 26.7199493,85.1407915 25.1781716,85.5023987 L25.8702026,88.4894056 Z" id="Path"></path>
                                <path d="M56.4107143,68.0265192 L58.4202426,70.342484 C58.5773587,70.2069562 58.7338752,70.0702293 58.8909915,69.9323027 C59.7779185,69.1527185 60.6720415,68.3413513 61.5475746,67.5239872 C61.9397655,67.1563833 62.3313566,66.7851812 62.7217484,66.4091817 L60.5952824,64.19996 C60.2156849,64.5663646 59.834888,64.9267723 59.4522921,65.2841817 C58.6001465,66.0811566 57.7306103,66.8697361 56.8670709,67.6277318 C56.7153518,67.7614605 56.5636328,67.8945895 56.4107143,68.0265192 Z" id="Path"></path>
                                <path d="M47.4682836,74.9708155 L49.2085554,77.4960687 C50.4780783,76.6217351 51.7631929,75.689832 53.0285181,74.727945 C53.3247601,74.5030651 53.6204023,74.2757863 53.9160448,74.0461087 L52.0342483,71.6246003 C51.7482009,71.8470815 51.4609541,72.0677638 51.1737073,72.2866472 C49.9449626,73.2203492 48.6994269,74.1234674 47.4682836,74.9708155 L47.4682836,74.9708155 Z" id="Path"></path>
                                <path d="M66.331823,4.0130597 C73.1879664,2.91684435 78.5970815,4.12160177 81.9750799,7.49900049 C83.6463886,9.17030917 84.7935767,11.3459488 85.3842616,13.9635527 C85.8598081,16.0804238 85.9743469,18.4803438 85.7224814,21.097348 C85.6613139,21.7414046 85.5767591,22.4064499 85.4700159,23.075693 L88.4984009,23.5548375 C88.6135394,22.8244269 88.7064899,22.0958156 88.7748534,21.389992 C89.0567031,18.4497602 88.9223748,15.7248135 88.3748667,13.2901119 C87.6552505,10.0974148 86.2316098,7.41864343 84.1429237,5.32995735 C80.0411114,1.22874463 73.7138859,-0.274053799 65.8478811,0.985274558 C61.938566,1.61074101 57.7300107,2.90485075 53.3427505,4.82982417 L54.5750932,7.63812629 C58.723081,5.81749729 62.6785714,4.5977479 66.331823,4.0130597 L66.331823,4.0130597 Z" id="Path"></path>
                                <path d="M33.0417778,21.534515 L31.0484407,19.2047574 C29.5774253,20.4634861 28.1220015,21.7791845 26.7217484,23.1140725 L28.8392191,25.3322895 C30.1992936,24.0339819 31.6139392,22.7560635 33.0417778,21.534515 Z" id="Path"></path>
                                <path d="M42.0393789,14.6549841 L40.3117004,12.1207356 C38.7129531,13.2115539 37.1220015,14.3605411 35.5844217,15.5359142 L37.4470282,17.971815 C38.9402318,16.8294243 40.4856077,15.7134195 42.0393789,14.6549841 L42.0393789,14.6549841 Z" id="Path"></path>
                                <path d="M87.7571962,26.2192163 C87.5245203,25.4048507 86.6753731,24.9341018 85.8616072,25.1667777 L78.7200159,27.2104878 L79.5631663,30.1585155 L84.1003464,28.860208 C82.9411647,32.5206557 81.4455623,36.0659649 79.6327292,39.4493603 C77.1272654,44.1394589 74.2128198,48.5992803 70.9241737,52.7772521 C68.4960687,55.8769988 65.9018522,58.8424174 63.1517191,61.6609142 L65.3459488,63.802372 C68.1728411,60.9053172 70.8396188,57.8571428 73.3354878,54.6710421 C76.7362739,50.3503464 79.7502665,45.7376067 82.3408849,40.8873935 C83.8484807,38.0539045 85.1551839,35.1190699 86.2501999,32.1020789 L87.0519723,34.9025852 L90,34.059435 L87.7571962,26.2192163 Z" id="Path"></path>
                                <path d="M3.20349142,62.6971615 C3.31083421,62.6971615 3.41877664,62.6857676 3.52492,62.66238 L10.7882462,61.1104077 L10.1471882,58.1114072 L5.5164578,59.1020789 C6.51432561,56.2877799 7.71608482,53.5502398 9.11214026,50.9110474 C11.5552372,46.2815165 14.4001199,41.8750666 17.6126066,37.7426705 C19.1154051,35.7949093 20.7471348,33.8321561 22.4610207,31.9095816 C23.4127132,30.8433502 24.4093817,29.7705224 25.4240405,28.7204824 C25.8684035,28.2605278 26.3253599,27.795176 26.7835154,27.3370202 L24.6156717,25.1691765 C24.1455224,25.6393257 23.6753732,26.1166711 23.2190164,26.5898188 C22.1761727,27.6692431 21.151919,28.7714551 20.1726412,29.8682703 C18.4095816,31.8442165 16.7322761,33.8639393 15.1886994,35.8644723 C11.8676705,40.1377932 8.92683897,44.6917645 6.40098609,49.4778119 C5.35394459,51.4585553 4.41124736,53.4926705 3.57649257,55.5723615 L2.99900052,52.8690031 L2.18162375e-15,53.5094617 L1.704291,61.4834089 C1.8554104,62.1910315 2.48027722,62.6959621 3.20349142,62.6971615 L3.20349142,62.6971615 Z" id="Path"></path>
                                <path d="M31.7770522,32.8522788 L31.7770522,57.1741071 C31.7770522,58.471815 32.505064,60.2990405 36.1966951,61.6345283 C38.5870202,62.499267 41.7119536,62.9760128 45.0305837,62.9760128 L45.1493203,62.9760128 C47.0664978,62.9760128 48.9794776,62.8009062 50.8648721,62.4536913 C55.644323,61.5367804 58.4154451,59.6124067 58.4154451,57.1741071 L58.4154451,32.8522788 C58.4154451,31.5539711 57.6040778,29.727945 53.911847,28.391258 C51.5209221,27.5265193 48.3540112,27.0497735 45.0311834,27.0497735 C41.7071562,27.0497735 38.5966151,27.5265193 36.2056902,28.391258 C32.5140592,29.7273454 31.7770522,31.5539711 31.7770522,32.8522788 Z M50.290978,59.4402985 C48.5561033,59.7617271 46.7954424,59.9188433 45.031783,59.9098481 C42.0531716,59.9098481 39.3132329,59.4978678 37.2491339,58.7518657 C35.2300107,58.0208555 34.8432169,57.2880464 34.8432169,57.1741071 L34.8432169,52.8947894 C35.2791844,53.1256664 35.7319429,53.32476 36.1966951,53.4896721 C38.5870202,54.3550106 41.7119536,54.8311566 45.0365805,54.8311566 C48.361807,54.8311566 51.5341152,54.3550106 53.9244402,53.4896721 C54.4485608,53.3001732 54.7741872,53.1004797 55.3492803,52.8935901 L55.3492803,57.1735074 C55.3492803,57.4613539 54.1079424,58.708089 50.290978,59.4402985 L50.290978,59.4402985 Z M55.3492803,49.0286514 C55.3492803,49.14379 54.8881263,49.8759995 52.8696029,50.6070097 C50.8049041,51.3542111 48.0097948,51.7649919 45.0311834,51.7649919 C42.0531716,51.7649919 39.3132329,51.3542111 37.2491339,50.6070097 C35.2300107,49.8759995 34.8432169,49.1431902 34.8432169,49.0286514 L34.8432169,44.8057036 C35.2791844,45.0371802 35.7319429,45.2362739 36.1966951,45.401186 C38.5870202,46.2665245 41.7119536,46.7426705 45.0365805,46.7426705 C48.361807,46.7426705 51.5341152,46.2665245 53.9244402,45.401186 C54.4485608,45.211687 54.7741872,45.0119936 55.3492803,44.8057036 L55.3492803,49.0286514 Z M52.8696029,42.5179237 C50.8049041,43.2651253 48.0097948,43.6759062 45.0311834,43.6759062 C42.0531716,43.6759062 39.3132329,43.2651253 37.2491339,42.5179237 C35.2300107,41.7875134 34.8432169,41.0547041 34.8432169,40.9407649 L34.8432169,36.7166178 C35.279784,36.9474947 35.7319429,37.1465885 36.1966951,37.3121002 C38.58762,38.1774387 41.7125532,38.6535847 45.0365805,38.6535847 C48.3606077,38.6535847 51.5335154,38.1768391 53.9244402,37.3121002 C54.4485608,37.1220016 54.7741872,36.922308 55.3492803,36.7166178 L55.3492803,40.9407649 C55.3492803,41.0547041 54.8881263,41.7875134 52.8696029,42.5179237 L52.8696029,42.5179237 Z M37.1933635,31.2745202 C39.2580623,30.526719 42.0351813,30.1159382 45.0125933,30.1159382 C47.9894056,30.1159382 50.7671242,30.526719 52.831823,31.2745202 C54.8497468,32.0055304 55.27492,32.7377399 55.27492,32.8522788 C55.27492,32.9656183 54.8497468,33.6978278 52.831823,34.4288379 C50.7671242,35.1766392 47.9894056,35.58742 45.0125933,35.58742 C42.0351813,35.58742 39.2580623,35.1754397 37.1933635,34.4288379 C35.1742403,33.6978278 34.7496669,32.9656183 34.7496669,32.8522788 C34.7496669,32.7377399 35.1748401,32.0055304 37.1939631,31.2745202 L37.1933635,31.2745202 Z" id="Shape"></path>
                            </g>
                        </g>
                    </g>
                </g>
            </g>
        </g>
    </g>
</svg>