<?xml version="1.0" encoding="UTF-8"?>
<svg width="72px" height="90px" viewBox="0 0 72 90" version="1.1" xmlns="http://www.w3.org/2000/svg" xmlns:xlink="http://www.w3.org/1999/xlink">
    <title>mobile-app</title>
    <g id="Page-1" stroke="none" stroke-width="1" fill="none" fill-rule="evenodd">
        <g id="Gram_web" transform="translate(-1234.000000, -1348.000000)" fill="#FFFFFF" fill-rule="nonzero">
            <g id="Service" transform="translate(0.000000, 873.000000)">
                <g id="service-info" transform="translate(190.000000, 302.000000)">
                    <g id="App-Development" transform="translate(1000.000000, 138.000000)">
                        <g id="Group" transform="translate(30.000000, 30.000000)">
                            <g id="service/mobile-app" transform="translate(14.000000, 5.000000)">
                                <path d="M58.42275,34.8945 L56.4,37.1055 L65.599125,45.5385 C67.76475,47.530875 68.99925,50.338125 69,53.28 L69,90 L72,90 L72,53.28 C71.99625,49.49625 70.40925,45.888 67.623,43.327125 L58.42275,34.8945 Z" id="Path"></path>
                                <path d="M46.5,0 L7.5,0 C3.36,0.00525 0.005250048,3.36 0,7.5 L0,82.5 C0.005250048,86.64 3.36,89.99475 7.5,90 L45,90 L45,87.3165 C44.992875,80.559375 46.993125,73.95075 50.748,68.3325 C51.1455,67.737 51.065625,66.944625 50.5605,66.4395 L40.0605,55.9395 C39.09,54.967875 38.5755,53.63175 38.643375,52.260375 C38.711625,50.88825 39.35625,49.61025 40.4175,48.7395 C42.461625,47.176875 45.3525,47.4 47.133,49.256625 L61.9395,64.0635 L64.0605,61.9425 L54,51.879 L54,7.5 C53.99475,3.36 50.64,0.00525 46.5,0 Z M51,48.879 L49.254,47.133 C46.37625,44.193 41.748,43.886625 38.508,46.42275 C36.79425,47.83125 35.754375,49.899 35.646,52.115625 C35.538,54.331875 36.3705,56.49075 37.9395,58.0605 L47.5845,67.705875 C43.9875,73.50225 42.0585,80.17875 42.0105,87 L7.5,87 C5.01525005,87 3,84.98475 3,82.5 L3,78 L40.5,78 L40.5,75 L3,75 L3,12 L51,12 L51,48.879 Z M51,9 L3,9 L3,7.5 C3,5.01525005 5.01525005,3 7.5,3 L46.5,3 C48.98475,3 51,5.01525005 51,7.5 L51,9 Z" id="Shape"></path>
                                <path d="M9,27 L15,27 C16.657125,27 18,25.657125 18,24 L18,18 C18,16.342875 16.657125,15 15,15 L9,15 C7.34287498,15 6,16.342875 6,18 L6,24 C6,25.657125 7.34287498,27 9,27 Z M9,18 L15,18 L15,24 L9,24 L9,18 Z" id="Shape"></path>
                                <path d="M24,27 L30,27 C31.657125,27 33,25.657125 33,24 L33,18 C33,16.342875 31.657125,15 30,15 L24,15 C22.342875,15 21,16.342875 21,18 L21,24 C21,25.657125 22.342875,27 24,27 Z M24,18 L30,18 L30,24 L24,24 L24,18 Z" id="Shape"></path>
                                <path d="M39,27 L45,27 C46.657125,27 48,25.657125 48,24 L48,18 C48,16.342875 46.657125,15 45,15 L39,15 C37.342875,15 36,16.342875 36,18 L36,24 C36,25.657125 37.342875,27 39,27 Z M39,18 L45,18 L45,24 L39,24 L39,18 Z" id="Shape"></path>
                                <path d="M9,42 L15,42 C16.657125,42 18,40.657125 18,39 L18,33 C18,31.342875 16.657125,30 15,30 L9,30 C7.34287498,30 6,31.342875 6,33 L6,39 C6,40.657125 7.34287498,42 9,42 Z M9,33 L15,33 L15,39 L9,39 L9,33 Z" id="Shape"></path>
                                <path d="M9,57 L15,57 C16.657125,57 18,55.657125 18,54 L18,48 C18,46.342875 16.657125,45 15,45 L9,45 C7.34287498,45 6,46.342875 6,48 L6,54 C6,55.657125 7.34287498,57 9,57 Z M9,48 L15,48 L15,54 L9,54 L9,48 Z" id="Shape"></path>
                                <path d="M24,42 L30,42 C31.657125,42 33,40.657125 33,39 L33,33 C33,31.342875 31.657125,30 30,30 L24,30 C22.342875,30 21,31.342875 21,33 L21,39 C21,40.657125 22.342875,42 24,42 Z M24,33 L30,33 L30,39 L24,39 L24,33 Z" id="Shape"></path>
                                <path d="M39,42 L45,42 C46.657125,42 48,40.657125 48,39 L48,33 C48,31.342875 46.657125,30 45,30 L39,30 C37.342875,30 36,31.342875 36,33 L36,39 C36,40.657125 37.342875,42 39,42 Z M39,33 L45,33 L45,39 L39,39 L39,33 Z" id="Shape"></path>
                                <path d="M24,57 L30,57 C31.657125,57 33,55.657125 33,54 L33,48 C33,46.342875 31.657125,45 30,45 L24,45 C22.342875,45 21,46.342875 21,48 L21,54 C21,55.657125 22.342875,57 24,57 Z M24,48 L30,48 L30,54 L24,54 L24,48 Z" id="Shape"></path>
                                <path d="M9,72 L15,72 C16.657125,72 18,70.657125 18,69 L18,63 C18,61.342875 16.657125,60 15,60 L9,60 C7.34287498,60 6,61.342875 6,63 L6,69 C6,70.657125 7.34287498,72 9,72 Z M9,63 L15,63 L15,69 L9,69 L9,63 Z" id="Shape"></path>
                                <path d="M24,72 L30,72 C31.657125,72 33,70.657125 33,69 L33,63 C33,61.342875 31.657125,60 30,60 L24,60 C22.342875,60 21,61.342875 21,63 L21,69 C21,70.657125 22.342875,72 24,72 Z M24,63 L30,63 L30,69 L24,69 L24,63 Z" id="Shape"></path>
                                <polygon id="Path" points="25.5 81 28.5 81 28.5 84 25.5 84"></polygon>
                            </g>
                        </g>
                    </g>
                </g>
            </g>
        </g>
    </g>
</svg>