<?xml version="1.0" encoding="UTF-8"?>
<svg width="100px" height="89px" viewBox="0 0 100 89" version="1.1" xmlns="http://www.w3.org/2000/svg" xmlns:xlink="http://www.w3.org/1999/xlink">
    <title>live</title>
    <defs>
        <linearGradient x1="88.2007212%" y1="97.9638903%" x2="11.8028846%" y2="30.5648374%" id="linearGradient-1">
            <stop stop-color="#A6D12B" offset="0%"></stop>
            <stop stop-color="#FFD92D" offset="100%"></stop>
        </linearGradient>
        <linearGradient x1="88.2007212%" y1="97.9638903%" x2="11.8028846%" y2="30.5648374%" id="linearGradient-2">
            <stop stop-color="#FFFFFF" offset="0%"></stop>
            <stop stop-color="#FFFFFF" offset="100%"></stop>
        </linearGradient>
    </defs>
    <g id="Page-1" stroke="none" stroke-width="1" fill="none" fill-rule="evenodd">
        <g id="Gram_web" transform="translate(-220.000000, -1349.000000)" fill="url(#linearGradient-2)" fill-rule="nonzero">
            <g id="Service" transform="translate(0.000000, 873.000000)">
                <g id="service-info" transform="translate(190.000000, 302.000000)">
                    <g id="直播新媒體" transform="translate(0.000000, 138.000000)">
                        <g id="Group" transform="translate(30.000000, 30.000000)">
                            <g id="service/live" transform="translate(0.000000, 6.000000)">
                                <path d="M16.9471154,38.4615385 C16.9471154,37.2596154 17.9086538,36.4182692 19.1105769,36.2980769 L19.9519231,36.2980769 C21.1538462,36.2980769 22.1153846,37.2596154 22.1153846,38.4615385 C22.1153846,39.6634615 21.1538462,40.625 19.9519231,40.625 L19.1105769,40.625 C17.9086538,40.5048077 16.9471154,39.5432692 16.9471154,38.4615385 Z M32.2115385,83.7740385 L4.20673077,83.7740385 L4.20673077,40.5048077 L11.0576923,40.5048077 C12.2596154,40.5048077 13.2211538,39.5432692 13.2211538,38.3413462 C13.2211538,37.1394231 12.2596154,36.1778846 11.0576923,36.1778846 L2.16346154,36.1778846 C0.961538462,36.1778846 0.120192308,37.1394231 0,38.3413462 L0,85.8173077 C0,87.0192308 0.961538462,87.9807692 2.16346154,87.9807692 L32.2115385,87.9807692 C33.4134615,87.9807692 34.375,87.0192308 34.375,85.8173077 C34.375,84.6153846 33.2932692,83.7740385 32.2115385,83.7740385 L32.2115385,83.7740385 Z M97.8365385,36.2980769 L66.4663462,36.2980769 C65.2644231,36.2980769 64.3028846,37.2596154 64.3028846,38.4615385 C64.3028846,39.6634615 65.2644231,40.625 66.4663462,40.625 L95.6730769,40.625 L95.6730769,83.8942308 L40.1442308,83.8942308 C38.9423077,83.8942308 37.9807692,84.8557692 37.9807692,86.0576923 C37.9807692,87.2596154 38.9423077,88.2211538 40.1442308,88.2211538 L97.8365385,88.2211538 C99.0384615,88.2211538 100,87.2596154 100,86.0576923 L100,38.4615385 C99.8798077,37.2596154 99.0384615,36.2980769 97.8365385,36.2980769 Z M27.7644231,72.7163462 L18.0288462,72.7163462 L18.0288462,56.7307692 L14.0625,56.7307692 L14.0625,75.9615385 L27.7644231,75.9615385 L27.7644231,72.7163462 Z M39.3028846,56.6105769 L35.3365385,56.6105769 L35.3365385,75.9615385 L39.3028846,75.9615385 L39.3028846,56.6105769 Z M57.2115385,75.9615385 L64.1826923,56.6105769 L59.9759615,56.6105769 L55.2884615,70.9134615 L50.3605769,56.6105769 L46.1538462,56.6105769 L53.125,75.9615385 L57.2115385,75.9615385 Z M85.5769231,59.8557692 L85.5769231,56.6105769 L71.1538462,56.6105769 L71.1538462,75.9615385 L85.9375,75.9615385 L85.9375,72.7163462 L75.1201923,72.7163462 L75.1201923,67.4278846 L84.8557692,67.4278846 L84.8557692,64.1826923 L75.1201923,64.1826923 L75.1201923,59.8557692 L85.5769231,59.8557692 Z M58.4134615,47.1153846 C53.7259615,51.8028846 46.1538462,51.8028846 41.5865385,47.1153846 C39.7836538,45.3125 38.5817308,43.0288462 38.2211538,40.5048077 L27.6442308,40.5048077 C26.4423077,40.5048077 25.4807692,39.5432692 25.4807692,38.3413462 C25.4807692,37.1394231 26.4423077,36.1778846 27.6442308,36.1778846 L38.2211538,36.1778846 C39.5432692,29.6875 45.7932692,25.4807692 52.2836538,26.8028846 C58.7740385,28.125 62.9807692,34.375 61.6586538,40.8653846 C61.1778846,43.3894231 60.0961538,45.4326923 58.4134615,47.1153846 L58.4134615,47.1153846 Z M50,31.0096154 C45.6730769,31.0096154 42.3076923,34.4951923 42.3076923,38.7019231 C42.3076923,43.0288462 45.7932692,46.3942308 50,46.3942308 C55.1682692,46.3942308 57.6923077,41.9471154 57.6923077,38.7019231 C57.6923077,34.375 54.3269231,31.0096154 50,31.0096154 L50,31.0096154 Z M68.0288462,23.6778846 C68.8701923,22.8365385 68.8701923,21.5144231 68.0288462,20.6730769 C58.0528846,10.6971154 41.9471154,10.6971154 32.0913462,20.6730769 C31.25,21.5144231 31.25,22.8365385 32.0913462,23.6778846 C32.9326923,24.5192308 34.2548077,24.5192308 35.0961538,23.6778846 C43.3894231,15.3846154 56.8509615,15.3846154 65.1442308,23.6778846 C65.8653846,24.5192308 67.1875,24.5192308 68.0288462,23.6778846 Z M68.0288462,9.25480769 C70.3125,10.6971154 72.4759615,12.3798077 74.3990385,14.3028846 C75.2403846,15.1442308 76.5625,15.1442308 77.4038462,14.3028846 C78.2451923,13.4615385 78.2451923,12.1394231 77.4038462,11.2980769 C75.2403846,9.13461538 72.8365385,7.21153846 70.1923077,5.64903846 C69.2307692,5.04807692 67.9086538,5.40865385 67.3076923,6.37019231 C66.7067308,7.33173077 67.0673077,8.53365385 68.0288462,9.25480769 L68.0288462,9.25480769 Z M61.2980769,6.00961538 C61.6586538,6.12980769 62.0192308,6.25 62.5,6.37019231 C63.5817308,6.85096154 64.7836538,6.25 65.2644231,5.16826923 C65.7451923,4.08653846 65.1442308,2.88461538 64.0625,2.40384615 C64.0625,2.40384615 64.0625,2.40384615 63.9423077,2.40384615 C63.4615385,2.28365385 63.1009615,2.04326923 62.6201923,1.92307692 C61.5384615,1.5625 60.3365385,2.16346154 59.9759615,3.24519231 C59.7355769,4.44711538 60.2163462,5.64903846 61.2980769,6.00961538 Z M25.6009615,14.3028846 C32.0913462,7.8125 40.8653846,4.20673077 50,4.20673077 C51.5625,4.20673077 53.125,4.32692308 54.6875,4.56730769 C55.8894231,4.6875 56.8509615,3.96634615 57.0913462,2.76442308 C57.2115385,1.5625 56.4903846,0.600961538 55.2884615,0.360576923 C53.4855769,0.120192308 51.8028846,0 50,0 C39.6634615,0 29.8076923,4.08653846 22.5961538,11.4182692 C21.7548077,12.2596154 21.7548077,13.5817308 22.5961538,14.4230769 C23.7980769,15.3846154 25.1201923,14.6634615 25.6009615,14.3028846 Z" id="Shape"></path>
                            </g>
                        </g>
                    </g>
                </g>
            </g>
        </g>
    </g>
</svg>