<?xml version="1.0" encoding="UTF-8"?>
<svg width="90px" height="90px" viewBox="0 0 90 90" version="1.1" xmlns="http://www.w3.org/2000/svg" xmlns:xlink="http://www.w3.org/1999/xlink">
    <title>cms</title>
    <g id="Page-1" stroke="none" stroke-width="1" fill="none" fill-rule="evenodd">
        <g id="Gram_web" transform="translate(-1605.000000, -1348.000000)" fill="#FFFFFF" fill-rule="nonzero">
            <g id="Service" transform="translate(0.000000, 873.000000)">
                <g id="service-info" transform="translate(190.000000, 302.000000)">
                    <g id="CMS" transform="translate(1380.000000, 138.000000)">
                        <g id="Group" transform="translate(30.000000, 30.000000)">
                            <g id="service/cms" transform="translate(5.000000, 5.000000)">
                                <path d="M86.0526563,0 L3.94734375,0 C1.77082031,0 0,1.77082031 0,3.94734375 L0,86.0526563 C0,88.2291797 1.77082031,90 3.94734375,90 L86.0526563,90 C88.2291797,90 90,88.2291797 90,86.0526563 L90,3.94734375 C90,1.77082031 88.2291797,0 86.0526563,0 Z M51.3472852,87.3683789 L38.6527148,87.3683789 C36.8277539,85.6321875 35.7894141,83.2269727 35.7894141,80.6964258 C35.7894141,75.6177539 39.9211523,71.4858398 45,71.4858398 C50.0788477,71.4858398 54.2105859,75.6175781 54.2105859,80.6964258 C54.2105859,83.2269727 53.1722461,85.6321875 51.3472852,87.3683789 Z M72.1001953,83.4683203 C71.827207,85.014668 71.728418,85.5743555 71.4128906,87.3685547 L54.7809961,87.3685547 C56.1104297,85.4210742 56.8420313,83.1033984 56.8420313,80.6966016 C56.8420313,74.1668555 51.5297461,68.8545703 45,68.8545703 C38.4702539,68.8545703 33.1579688,74.1668555 33.1579688,80.6966016 C33.1579688,83.1033984 33.8895703,85.4210742 35.2190039,87.3685547 L18.5871094,87.3685547 C18.2717578,85.5745313 18.1729688,85.014668 17.8998047,83.4683203 L17.7746484,82.7586914 L22.9507031,80.0200195 L24.1461914,73.2404883 L20.2185352,68.896582 L22.6358789,64.7101758 L28.3614258,65.9388867 L28.8541406,65.525625 C30.2867578,64.3241602 31.0485938,63.684668 32.2231641,62.6987109 L33.6350391,61.513418 L33.4186523,55.6616602 L34.3091602,55.3378711 C35.6660156,54.8444531 36.2230664,54.6419531 37.9620703,54.0084375 L41.5562695,58.6299023 L48.4433789,58.6299023 L52.0375781,54.0084375 C53.7764063,54.6419531 54.3336328,54.8446289 55.6904883,55.3378711 L56.5809961,55.6616602 L56.3646094,61.513418 L57.7764844,62.6987109 C58.9510547,63.684668 59.7128906,64.3243359 61.1455078,65.525625 L61.6382227,65.9388867 L67.3637695,64.7101758 L69.7811133,68.896582 L65.853457,73.2404883 L67.0489453,80.0200195 L72.225,82.7586914 L72.1001953,83.4683203 Z M87.3683789,86.0526563 C87.3683789,86.7782813 86.7781055,87.3685547 86.0526563,87.3685547 L74.0847656,87.3685547 C74.3391211,85.9224023 74.4431836,85.3323047 74.6915625,83.9257031 L75.15,81.3288867 L69.4172461,78.2957813 L68.6687695,74.0506641 L73.0184766,69.2400586 L68.6849414,61.7354297 L62.3438086,63.0961523 C61.2138867,62.1483398 60.5005664,61.5496289 59.4685547,60.6832031 L59.0421094,60.3251367 L59.281875,53.8435547 L56.5899609,52.8646289 C55.0235742,52.2950977 54.5236523,52.1133398 52.0382812,51.2075391 L51.1375781,50.8793555 L47.1564844,55.9981055 L42.8436914,55.9981055 L38.8625977,50.8793555 L37.9618945,51.2075391 C35.4765234,52.1133398 34.9766016,52.2950977 33.4102148,52.8646289 L30.7183008,53.8435547 L30.9580664,60.3251367 L30.5316211,60.6832031 C29.4996094,61.5496289 28.7862891,62.1483398 27.6563672,63.0961523 L21.3152344,61.7354297 L16.9816992,69.2400586 L21.3314062,74.0506641 L20.5829297,78.2957813 L14.85,81.3290625 L15.3084375,83.9258789 C15.5568164,85.3323047 15.6608789,85.9225781 15.9152344,87.3685547 L3.94734375,87.3685547 C3.22171875,87.3685547 2.63162109,86.7782813 2.63162109,86.052832 L2.63162109,14.9122266 L87.3683789,14.9122266 L87.3683789,86.0526563 Z M87.3683789,12.2807813 L2.63162109,12.2807813 L2.63162109,3.94734375 C2.63162109,3.22171875 3.22189453,2.63162109 3.94734375,2.63162109 L86.0526563,2.63162109 C86.7782813,2.63162109 87.3683789,3.22189453 87.3683789,3.94734375 L87.3683789,12.2807813 Z" id="Shape"></path>
                                <polygon id="Path" points="9.21058594 5.96496094 66.579082 5.96496094 66.579082 8.59658203 9.21058594 8.59658203"></polygon>
                                <polygon id="Path" points="80.0876953 5.96496094 82.7193164 5.96496094 82.7193164 8.59658203 80.0876953 8.59658203"></polygon>
                                <polygon id="Path" points="74.8246289 5.96496094 77.45625 5.96496094 77.45625 8.59658203 74.8246289 8.59658203"></polygon>
                                <polygon id="Path" points="69.5613867 5.96496094 72.1930078 5.96496094 72.1930078 8.59658203 69.5613867 8.59658203"></polygon>
                                <polygon id="Path" points="70.9648242 49.9999219 73.5964453 49.9999219 73.5964453 52.631543 70.9648242 52.631543"></polygon>
                                <polygon id="Path" points="76.2280664 49.9999219 78.8596875 49.9999219 78.8596875 52.631543 76.2280664 52.631543"></polygon>
                                <polygon id="Path" points="81.4913086 49.9999219 84.1229297 49.9999219 84.1229297 52.631543 81.4913086 52.631543"></polygon>
                                <polygon id="Path" points="17.8069922 49.9999219 20.4386133 49.9999219 20.4386133 52.631543 17.8069922 52.631543"></polygon>
                                <polygon id="Path" points="12.5439258 49.9999219 15.1755469 49.9999219 15.1755469 52.631543 12.5439258 52.631543"></polygon>
                                <polygon id="Path" points="7.28068359 49.9999219 9.91230469 49.9999219 9.91230469 52.631543 7.28068359 52.631543"></polygon>
                                <path d="M18.1578516,44.0351367 L28.5087305,44.0351367 L28.5087305,41.4035156 L18.1578516,41.4035156 C12.8856445,41.4035156 8.59640625,37.1142773 8.59640625,31.8420703 C8.59640625,26.5698633 12.8856445,22.280625 18.1578516,22.280625 L28.5087305,22.280625 L28.5087305,19.6490039 L18.1578516,19.6490039 C11.4345703,19.6490039 5.96478516,25.1187891 5.96478516,31.8420703 C5.96478516,38.5653516 11.4347461,44.0351367 18.1578516,44.0351367 L18.1578516,44.0351367 Z" id="Path"></path>
                                <path d="M84.2104688,37.368457 L84.2104688,37.0175977 C84.2104688,33.3416602 81.2197266,30.350918 77.5437891,30.350918 L70.3508203,30.350918 C68.125957,30.350918 66.3157617,28.5407227 66.3157617,26.3158594 C66.3157617,24.0909961 68.125957,22.2808008 70.3508203,22.2808008 L84.1227539,22.2808008 L84.1227539,19.6491797 L70.3508203,19.6491797 C66.6748828,19.6491797 63.6841406,22.6399219 63.6841406,26.3158594 C63.6841406,29.9917969 66.6748828,32.9825391 70.3508203,32.9825391 L77.5437891,32.9825391 C79.7686523,32.9825391 81.5788477,34.7927344 81.5788477,37.0175977 L81.5788477,37.368457 C81.5788477,39.5933203 79.7686523,41.4035156 77.5437891,41.4035156 L63.5964258,41.4035156 L63.5964258,44.0351367 L77.5437891,44.0351367 C81.2199023,44.0351367 84.2104688,41.0443945 84.2104688,37.368457 L84.2104688,37.368457 Z" id="Path"></path>
                                <path d="M33.8596875,27.5876367 C33.8596875,24.6614063 36.2404688,22.280625 39.1666992,22.280625 L39.6929883,22.280625 C42.6192188,22.280625 45,24.6614063 45,27.5876367 L45,35.3508398 L47.6316211,35.3508398 L47.6316211,27.5876367 C47.6316211,24.6614063 50.0124023,22.280625 52.9386328,22.280625 C55.8648633,22.280625 58.2456445,24.6614063 58.2456445,27.5876367 L58.2456445,44.1226758 L60.8772656,44.1226758 L60.8772656,27.5876367 C60.8772656,23.2101563 57.3161133,19.6490039 52.9386328,19.6490039 C50.175,19.6490039 47.7379688,21.0693164 46.3158984,23.2173633 C44.8936523,21.0693164 42.4566211,19.6490039 39.6931641,19.6490039 L39.166875,19.6490039 C34.7893945,19.6490039 31.2282422,23.2101563 31.2282422,27.5876367 L31.2282422,44.1226758 L33.8598633,44.1226758 L33.8598633,27.5876367 L33.8596875,27.5876367 Z" id="Path"></path>
                            </g>
                        </g>
                    </g>
                </g>
            </g>
        </g>
    </g>
</svg>